<svg width="43" height="43" viewBox="0 0 43 43" fill="none" xmlns="http://www.w3.org/2000/svg">
<g filter="url(#filter0_d_1_210)">
<circle cx="21.5" cy="19.5" r="17.5" fill="white"/>
</g>
<path d="M32 21.5C32 23.26 30.7 24.72 29 24.96V28C29 28.5304 28.7893 29.0391 28.4142 29.4142C28.0391 29.7893 27.5304 30 27 30H23.2V29.7C23.2 28.9839 22.9155 28.2972 22.4092 27.7908C21.9028 27.2845 21.2161 27 20.5 27C19 27 17.8 28.21 17.8 29.7V30H14C13.4696 30 12.9609 29.7893 12.5858 29.4142C12.2107 29.0391 12 28.5304 12 28V24.2H12.3C13.79 24.2 15 23 15 21.5C15 20 13.79 18.8 12.3 18.8H12V15C12 14.4696 12.2107 13.9609 12.5858 13.5858C12.9609 13.2107 13.4696 13 14 13H17.04C17.28 11.3 18.74 10 20.5 10C22.26 10 23.72 11.3 23.96 13H27C27.5304 13 28.0391 13.2107 28.4142 13.5858C28.7893 13.9609 29 14.4696 29 15V18.04C30.7 18.28 32 19.74 32 21.5ZM27 23H28.5C28.8978 23 29.2794 22.842 29.5607 22.5607C29.842 22.2794 30 21.8978 30 21.5C30 21.1022 29.842 20.7206 29.5607 20.4393C29.2794 20.158 28.8978 20 28.5 20H27V15H22V13.5C22 13.1022 21.842 12.7206 21.5607 12.4393C21.2794 12.158 20.8978 12 20.5 12C20.1022 12 19.7206 12.158 19.4393 12.4393C19.158 12.7206 19 13.1022 19 13.5V15H14V17.12C15.76 17.8 17 19.5 17 21.5C17 23.5 15.75 25.2 14 25.88V28H16.12C16.4627 27.1168 17.0643 26.3577 17.8459 25.8224C18.6275 25.287 19.5526 25.0004 20.5 25C22.5 25 24.2 26.25 24.88 28H27V23Z" fill="black"/>
<defs>
<filter id="filter0_d_1_210" x="0" y="0" width="43" height="43" filterUnits="userSpaceOnUse" color-interpolation-filters="sRGB">
<feFlood flood-opacity="0" result="BackgroundImageFix"/>
<feColorMatrix in="SourceAlpha" type="matrix" values="0 0 0 0 0 0 0 0 0 0 0 0 0 0 0 0 0 0 127 0" result="hardAlpha"/>
<feOffset dy="2"/>
<feGaussianBlur stdDeviation="2"/>
<feComposite in2="hardAlpha" operator="out"/>
<feColorMatrix type="matrix" values="0 0 0 0 0 0 0 0 0 0 0 0 0 0 0 0 0 0 0.25 0"/>
<feBlend mode="normal" in2="BackgroundImageFix" result="effect1_dropShadow_1_210"/>
<feBlend mode="normal" in="SourceGraphic" in2="effect1_dropShadow_1_210" result="shape"/>
</filter>
</defs>
</svg>
