<svg width="62" height="59" viewBox="0 0 62 59" fill="none" xmlns="http://www.w3.org/2000/svg">
<rect width="61.2433" height="59" rx="9" fill="#3498DB"/>
<path d="M29.95 44V40.8889H42.35V29.8444C42.35 26.8111 41.2975 24.2382 39.1926 22.1258C37.0877 20.0133 34.5235 18.9566 31.5 18.9556C28.4765 18.9545 25.9128 20.0113 23.8089 22.1258C21.705 24.2403 20.6521 26.8132 20.65 29.8444V39.3333H19.1C18.2475 39.3333 17.518 39.029 16.9114 38.4202C16.3048 37.8115 16.001 37.0788 16 36.2222V33.1111C16 32.5667 16.1359 32.0549 16.4076 31.5758C16.6794 31.0967 17.0602 30.714 17.55 30.4278L17.6662 28.3667C17.8729 26.6037 18.3834 24.9704 19.1976 23.4667C20.0119 21.963 21.0323 20.6537 22.2589 19.5389C23.4855 18.4241 24.8929 17.5556 26.4811 16.9333C28.0693 16.3111 29.7423 16 31.5 16C33.2577 16 34.9239 16.3111 36.4987 16.9333C38.0735 17.5556 39.4815 18.4179 40.7225 19.5202C41.9635 20.6226 42.9839 21.9251 43.7837 23.4278C44.5835 24.9304 45.1002 26.5638 45.3337 28.3278L45.45 30.35C45.9408 30.5833 46.3221 30.9333 46.5939 31.4C46.8657 31.8667 47.001 32.3593 47 32.8778V36.4556C47 36.9741 46.8646 37.4667 46.5939 37.9333C46.3232 38.4 45.9419 38.75 45.45 38.9833V40.8889C45.45 41.7444 45.1467 42.4771 44.5401 43.0869C43.9336 43.6967 43.2035 44.001 42.35 44H29.95ZM26.85 33.1111C26.4108 33.1111 26.043 32.9618 25.7464 32.6631C25.4498 32.3644 25.301 31.9953 25.3 31.5556C25.299 31.1158 25.4478 30.7467 25.7464 30.448C26.045 30.1493 26.4129 30 26.85 30C27.2871 30 27.6555 30.1493 27.9551 30.448C28.2548 30.7467 28.4031 31.1158 28.4 31.5556C28.3969 31.9953 28.2481 32.365 27.9536 32.6647C27.6591 32.9644 27.2912 33.1132 26.85 33.1111ZM36.15 33.1111C35.7108 33.1111 35.343 32.9618 35.0464 32.6631C34.7498 32.3644 34.601 31.9953 34.6 31.5556C34.599 31.1158 34.7478 30.7467 35.0464 30.448C35.345 30.1493 35.7129 30 36.15 30C36.5871 30 36.9555 30.1493 37.2551 30.448C37.5548 30.7467 37.7031 31.1158 37.7 31.5556C37.6969 31.9953 37.5481 32.365 37.2536 32.6647C36.9591 32.9644 36.5912 33.1132 36.15 33.1111ZM22.2387 30.7C22.0579 27.9518 22.8846 25.5926 24.7187 23.6222C26.5529 21.6519 28.8392 20.6667 31.5775 20.6667C33.8767 20.6667 35.8984 21.3988 37.6426 22.8631C39.3869 24.3274 40.4394 26.2013 40.8 28.4849C38.4492 28.4579 36.2859 27.8222 34.3101 26.5778C32.3344 25.3333 30.8164 23.6481 29.7562 21.5222C29.3429 23.5963 28.4713 25.4438 27.1414 27.0647C25.8115 28.6856 24.1773 29.8973 22.2387 30.7Z" fill="white"/>
</svg>
