<svg width="15" height="16" viewBox="0 0 15 16" fill="none" xmlns="http://www.w3.org/2000/svg">
<path d="M10.464 10.0104L10.0848 10.4066C10.0848 10.4066 9.18232 11.3477 6.71984 8.77817C4.25735 6.20869 5.15985 5.26765 5.15985 5.26765L5.39818 5.01753C5.98734 4.40358 6.04317 3.41707 5.52901 2.69642L4.47902 1.22452C3.84235 0.332463 2.6132 0.214396 1.88403 0.975271L0.57571 2.3396C0.214879 2.71741 -0.0267865 3.20542 0.00237998 3.74765C0.0773795 5.13559 0.675709 8.1205 4.01235 11.603C7.5515 15.2955 10.8723 15.4424 12.2298 15.3095C12.6598 15.2675 13.0331 15.0383 13.334 14.7235L14.5173 13.4886C15.3173 12.6551 15.0923 11.2252 14.069 10.6419L12.4773 9.7332C11.8056 9.35102 10.989 9.46296 10.464 10.0104Z" fill="black"/>
</svg>
