<svg width="62" height="59" viewBox="0 0 62 59" fill="none" xmlns="http://www.w3.org/2000/svg">
<rect width="61.2433" height="59" rx="9" fill="#3498DB"/>
<path d="M31.506 41.8258L19 29.3198V31.8747C19 32.5517 19.2683 33.2032 19.7537 33.6758L29.7048 43.627C30.7012 44.6234 32.3235 44.6234 33.3199 43.627L41.2527 35.6942C42.2491 34.6978 42.2491 33.0754 41.2527 32.0791L31.506 41.8258Z" fill="white"/>
<path d="M29.7048 37.2399C30.203 37.7381 30.8545 37.9936 31.506 37.9936C32.1575 37.9936 32.8089 37.7381 33.3071 37.2399L41.2399 29.3071C42.2363 28.3107 42.2363 26.6884 41.2399 25.692L31.2888 15.7409C30.8162 15.2683 30.1647 15 29.4876 15H21.5548C20.1497 15 19 16.1497 19 17.5548V25.4876C19 26.1647 19.2683 26.8162 19.7537 27.2888L29.7048 37.2399ZM21.5548 17.5548H29.4876L39.4388 27.506L31.506 35.4388L21.5548 25.4876V17.5548Z" fill="white"/>
<path d="M24.4291 22.0258C25.3109 22.0258 26.0258 21.3109 26.0258 20.4291C26.0258 19.5472 25.3109 18.8323 24.4291 18.8323C23.5472 18.8323 22.8323 19.5472 22.8323 20.4291C22.8323 21.3109 23.5472 22.0258 24.4291 22.0258Z" fill="white"/>
</svg>
