<svg width="43" height="43" viewBox="0 0 43 43" fill="none" xmlns="http://www.w3.org/2000/svg">
<g filter="url(#filter0_d_1_222)">
<circle cx="21.5" cy="19.4998" r="17.5" fill="white"/>
</g>
<path d="M26.3926 10.9998C23.1154 10.9998 21.5 14.207 21.5 14.207C21.5 14.207 19.8846 10.9998 16.6074 10.9998C13.9441 10.9998 11.835 13.2118 11.8077 15.8513C11.7522 21.3302 16.1859 25.2265 21.0457 28.5009C21.1797 28.5914 21.338 28.6398 21.5 28.6398C21.6621 28.6398 21.8204 28.5914 21.9543 28.5009C26.8136 25.2265 31.2473 21.3302 31.1923 15.8513C31.1651 13.2118 29.056 10.9998 26.3926 10.9998Z" stroke="black" stroke-width="2" stroke-linecap="round" stroke-linejoin="round"/>
<path d="M11 19.8197H16.6538L19.0769 15.0088L21.5 23.027L23.9231 18.2161L25.5385 21.4233H32" stroke="black" stroke-width="2" stroke-linecap="round" stroke-linejoin="round"/>
<defs>
<filter id="filter0_d_1_222" x="0" y="-0.000244141" width="43" height="43" filterUnits="userSpaceOnUse" color-interpolation-filters="sRGB">
<feFlood flood-opacity="0" result="BackgroundImageFix"/>
<feColorMatrix in="SourceAlpha" type="matrix" values="0 0 0 0 0 0 0 0 0 0 0 0 0 0 0 0 0 0 127 0" result="hardAlpha"/>
<feOffset dy="2"/>
<feGaussianBlur stdDeviation="2"/>
<feComposite in2="hardAlpha" operator="out"/>
<feColorMatrix type="matrix" values="0 0 0 0 0 0 0 0 0 0 0 0 0 0 0 0 0 0 0.25 0"/>
<feBlend mode="normal" in2="BackgroundImageFix" result="effect1_dropShadow_1_222"/>
<feBlend mode="normal" in="SourceGraphic" in2="effect1_dropShadow_1_222" result="shape"/>
</filter>
</defs>
</svg>
