<svg width="43" height="43" viewBox="0 0 43 43" fill="none" xmlns="http://www.w3.org/2000/svg">
<g filter="url(#filter0_d_1_204)">
<circle cx="21.5" cy="19.5" r="17.5" fill="white"/>
</g>
<path d="M31.0323 19.0323H29.3565C29.1407 17.4137 28.3982 15.9111 27.2436 14.7564C26.0889 13.6018 24.5863 12.8593 22.9677 12.6435V10.9677C22.9677 10.7111 22.8658 10.4649 22.6843 10.2834C22.5028 10.102 22.2567 10 22 10C21.7433 10 21.4972 10.102 21.3157 10.2834C21.1342 10.4649 21.0323 10.7111 21.0323 10.9677V12.6435C19.4137 12.8593 17.9111 13.6018 16.7564 14.7564C15.6018 15.9111 14.8593 17.4137 14.6435 19.0323H12.9677C12.7111 19.0323 12.4649 19.1342 12.2834 19.3157C12.102 19.4972 12 19.7433 12 20C12 20.2567 12.102 20.5028 12.2834 20.6843C12.4649 20.8658 12.7111 20.9677 12.9677 20.9677H14.6435C14.8593 22.5863 15.6018 24.0889 16.7564 25.2436C17.9111 26.3982 19.4137 27.1407 21.0323 27.3565V29.0323C21.0323 29.2889 21.1342 29.5351 21.3157 29.7166C21.4972 29.898 21.7433 30 22 30C22.2567 30 22.5028 29.898 22.6843 29.7166C22.8658 29.5351 22.9677 29.2889 22.9677 29.0323V27.3565C24.5863 27.1407 26.0889 26.3982 27.2436 25.2436C28.3982 24.0889 29.1407 22.5863 29.3565 20.9677H31.0323C31.2889 20.9677 31.5351 20.8658 31.7166 20.6843C31.898 20.5028 32 20.2567 32 20C32 19.7433 31.898 19.4972 31.7166 19.3157C31.5351 19.1342 31.2889 19.0323 31.0323 19.0323ZM22 25.4839C20.9154 25.4839 19.8551 25.1622 18.9533 24.5597C18.0515 23.9571 17.3486 23.1006 16.9336 22.0986C16.5185 21.0965 16.4099 19.9939 16.6215 18.9302C16.8331 17.8664 17.3554 16.8893 18.1223 16.1223C18.8893 15.3554 19.8664 14.8331 20.9302 14.6215C21.9939 14.4099 23.0965 14.5185 24.0986 14.9336C25.1006 15.3486 25.9571 16.0515 26.5597 16.9533C27.1622 17.8551 27.4839 18.9154 27.4839 20C27.4824 21.454 26.9041 22.8479 25.876 23.876C24.8479 24.9041 23.454 25.4824 22 25.4839Z" fill="black"/>
<defs>
<filter id="filter0_d_1_204" x="0" y="0" width="43" height="43" filterUnits="userSpaceOnUse" color-interpolation-filters="sRGB">
<feFlood flood-opacity="0" result="BackgroundImageFix"/>
<feColorMatrix in="SourceAlpha" type="matrix" values="0 0 0 0 0 0 0 0 0 0 0 0 0 0 0 0 0 0 127 0" result="hardAlpha"/>
<feOffset dy="2"/>
<feGaussianBlur stdDeviation="2"/>
<feComposite in2="hardAlpha" operator="out"/>
<feColorMatrix type="matrix" values="0 0 0 0 0 0 0 0 0 0 0 0 0 0 0 0 0 0 0.25 0"/>
<feBlend mode="normal" in2="BackgroundImageFix" result="effect1_dropShadow_1_204"/>
<feBlend mode="normal" in="SourceGraphic" in2="effect1_dropShadow_1_204" result="shape"/>
</filter>
</defs>
</svg>
