<svg width="185" height="32" viewBox="0 0 185 32" fill="none" xmlns="http://www.w3.org/2000/svg">
<mask id="path-1-outside-1_1_180" maskUnits="userSpaceOnUse" x="36" y="7" width="150" height="25" fill="black">
<rect fill="white" x="36" y="7" width="150" height="25"/>
<path d="M46.08 26.264C44.176 26.264 42.56 25.904 41.232 25.184C39.92 24.464 38.92 23.456 38.232 22.16C37.544 20.864 37.2 19.344 37.2 17.6C37.2 16.256 37.4 15.048 37.8 13.976C38.216 12.888 38.808 11.968 39.576 11.216C40.36 10.448 41.304 9.856 42.408 9.44C43.528 9.024 44.792 8.816 46.2 8.816C47.064 8.816 47.928 8.912 48.792 9.104C49.656 9.296 50.488 9.616 51.288 10.064C51.624 10.256 51.848 10.504 51.96 10.808C52.088 11.096 52.12 11.408 52.056 11.744C52.008 12.064 51.88 12.352 51.672 12.608C51.48 12.848 51.224 13.008 50.904 13.088C50.6 13.152 50.248 13.088 49.848 12.896C49.32 12.608 48.76 12.4 48.168 12.272C47.576 12.128 46.928 12.056 46.224 12.056C45.088 12.056 44.136 12.272 43.368 12.704C42.6 13.12 42.024 13.744 41.64 14.576C41.272 15.392 41.088 16.4 41.088 17.6C41.088 19.408 41.52 20.776 42.384 21.704C43.264 22.632 44.56 23.096 46.272 23.096C46.848 23.096 47.44 23.04 48.048 22.928C48.656 22.816 49.256 22.656 49.848 22.448L49.152 23.96V19.352H46.992C46.512 19.352 46.144 19.232 45.888 18.992C45.632 18.752 45.504 18.424 45.504 18.008C45.504 17.576 45.632 17.248 45.888 17.024C46.144 16.784 46.512 16.664 46.992 16.664H50.76C51.24 16.664 51.6 16.792 51.84 17.048C52.096 17.304 52.224 17.672 52.224 18.152V23.72C52.224 24.136 52.144 24.488 51.984 24.776C51.824 25.064 51.552 25.272 51.168 25.4C50.448 25.656 49.64 25.864 48.744 26.024C47.848 26.184 46.96 26.264 46.08 26.264ZM59.1885 26.264C58.3245 26.264 57.5485 26.096 56.8605 25.76C56.1725 25.424 55.6365 24.968 55.2525 24.392C54.8685 23.816 54.6765 23.168 54.6765 22.448C54.6765 21.584 54.9005 20.904 55.3485 20.408C55.7965 19.896 56.5245 19.536 57.5325 19.328C58.5405 19.104 59.8765 18.992 61.5405 18.992H62.8125V20.864H61.5645C60.7485 20.864 60.0845 20.912 59.5725 21.008C59.0765 21.088 58.7165 21.232 58.4925 21.44C58.2845 21.648 58.1805 21.936 58.1805 22.304C58.1805 22.752 58.3325 23.12 58.6365 23.408C58.9565 23.696 59.4125 23.84 60.0045 23.84C60.4685 23.84 60.8765 23.736 61.2285 23.528C61.5965 23.304 61.8845 23.008 62.0925 22.64C62.3005 22.256 62.4045 21.824 62.4045 21.344V18.584C62.4045 17.88 62.2445 17.384 61.9245 17.096C61.6045 16.792 61.0605 16.64 60.2925 16.64C59.8605 16.64 59.3885 16.696 58.8765 16.808C58.3805 16.904 57.8285 17.072 57.2205 17.312C56.8685 17.472 56.5565 17.512 56.2845 17.432C56.0125 17.336 55.8045 17.176 55.6605 16.952C55.5165 16.712 55.4445 16.456 55.4445 16.184C55.4445 15.896 55.5245 15.624 55.6845 15.368C55.8445 15.096 56.1085 14.896 56.4765 14.768C57.2285 14.464 57.9325 14.256 58.5885 14.144C59.2605 14.032 59.8765 13.976 60.4365 13.976C61.6685 13.976 62.6765 14.16 63.4605 14.528C64.2605 14.88 64.8605 15.432 65.2605 16.184C65.6605 16.92 65.8605 17.872 65.8605 19.04V24.368C65.8605 24.96 65.7165 25.416 65.4285 25.736C65.1405 26.056 64.7245 26.216 64.1805 26.216C63.6365 26.216 63.2125 26.056 62.9085 25.736C62.6205 25.416 62.4765 24.96 62.4765 24.368V23.48L62.6445 23.624C62.5485 24.168 62.3405 24.64 62.0205 25.04C61.7165 25.424 61.3245 25.728 60.8445 25.952C60.3645 26.16 59.8125 26.264 59.1885 26.264ZM73.1479 26.264C72.1239 26.264 71.2199 26.016 70.4359 25.52C69.6679 25.024 69.0679 24.312 68.6359 23.384C68.2039 22.456 67.9879 21.36 67.9879 20.096C67.9879 18.832 68.2039 17.744 68.6359 16.832C69.0679 15.92 69.6679 15.216 70.4359 14.72C71.2199 14.224 72.1239 13.976 73.1479 13.976C74.0759 13.976 74.8919 14.2 75.5959 14.648C76.3159 15.096 76.8039 15.68 77.0599 16.4H76.7959V10.712C76.7959 10.104 76.9479 9.648 77.2519 9.344C77.5559 9.024 78.0039 8.864 78.5959 8.864C79.1719 8.864 79.6199 9.024 79.9399 9.344C80.2599 9.648 80.4199 10.104 80.4199 10.712V24.368C80.4199 24.96 80.2599 25.416 79.9399 25.736C79.6359 26.056 79.1959 26.216 78.6199 26.216C78.0439 26.216 77.5959 26.056 77.2759 25.736C76.9719 25.416 76.8199 24.96 76.8199 24.368V22.736L77.0839 23.672C76.8599 24.456 76.3799 25.088 75.6439 25.568C74.9239 26.032 74.0919 26.264 73.1479 26.264ZM74.2279 23.552C74.7559 23.552 75.2119 23.424 75.5959 23.168C75.9799 22.912 76.2839 22.536 76.5079 22.04C76.7319 21.528 76.8439 20.88 76.8439 20.096C76.8439 18.928 76.6039 18.072 76.1239 17.528C75.6439 16.968 75.0119 16.688 74.2279 16.688C73.7159 16.688 73.2599 16.808 72.8599 17.048C72.4759 17.288 72.1719 17.664 71.9479 18.176C71.7399 18.672 71.6359 19.312 71.6359 20.096C71.6359 21.264 71.8759 22.136 72.3559 22.712C72.8359 23.272 73.4599 23.552 74.2279 23.552ZM88.8763 30.584C88.0123 30.584 87.1803 30.512 86.3803 30.368C85.5963 30.224 84.9003 30.008 84.2923 29.72C83.9243 29.56 83.6603 29.352 83.5003 29.096C83.3563 28.84 83.2923 28.568 83.3083 28.28C83.3403 27.992 83.4363 27.736 83.5963 27.512C83.7723 27.288 83.9883 27.128 84.2443 27.032C84.5003 26.952 84.7723 26.976 85.0603 27.104C85.7643 27.424 86.4123 27.632 87.0043 27.728C87.6123 27.824 88.1323 27.872 88.5643 27.872C89.5883 27.872 90.3563 27.64 90.8683 27.176C91.3803 26.712 91.6363 26 91.6363 25.04V23.216H91.8523C91.6123 23.952 91.1163 24.552 90.3643 25.016C89.6123 25.48 88.7803 25.712 87.8683 25.712C86.8123 25.712 85.8923 25.472 85.1083 24.992C84.3243 24.496 83.7163 23.808 83.2843 22.928C82.8523 22.032 82.6363 21 82.6363 19.832C82.6363 18.952 82.7563 18.152 82.9963 17.432C83.2523 16.712 83.6043 16.096 84.0523 15.584C84.5163 15.072 85.0683 14.68 85.7083 14.408C86.3643 14.12 87.0843 13.976 87.8683 13.976C88.8123 13.976 89.6443 14.208 90.3643 14.672C91.1003 15.12 91.5883 15.712 91.8283 16.448L91.5883 17.216V15.848C91.5883 15.256 91.7403 14.808 92.0443 14.504C92.3643 14.184 92.8123 14.024 93.3883 14.024C93.9643 14.024 94.4043 14.184 94.7083 14.504C95.0123 14.808 95.1643 15.256 95.1643 15.848V24.632C95.1643 26.6 94.6203 28.08 93.5323 29.072C92.4603 30.08 90.9083 30.584 88.8763 30.584ZM88.9483 23C89.4923 23 89.9563 22.872 90.3403 22.616C90.7403 22.36 91.0523 22 91.2763 21.536C91.5003 21.056 91.6123 20.488 91.6123 19.832C91.6123 18.84 91.3643 18.072 90.8683 17.528C90.3883 16.968 89.7483 16.688 88.9483 16.688C88.4043 16.688 87.9323 16.816 87.5323 17.072C87.1323 17.312 86.8203 17.672 86.5963 18.152C86.3883 18.616 86.2843 19.176 86.2843 19.832C86.2843 20.824 86.5243 21.6 87.0043 22.16C87.4843 22.72 88.1323 23 88.9483 23ZM104.098 26.264C102.706 26.264 101.506 26.016 100.498 25.52C99.5059 25.008 98.7379 24.296 98.1939 23.384C97.6659 22.456 97.4019 21.368 97.4019 20.12C97.4019 18.904 97.6579 17.84 98.1699 16.928C98.6819 16 99.3939 15.28 100.306 14.768C101.234 14.24 102.282 13.976 103.45 13.976C104.298 13.976 105.066 14.12 105.754 14.408C106.442 14.68 107.034 15.08 107.53 15.608C108.026 16.12 108.402 16.752 108.658 17.504C108.914 18.24 109.042 19.064 109.042 19.976C109.042 20.28 108.946 20.512 108.754 20.672C108.562 20.816 108.282 20.888 107.914 20.888H100.378V19.016H106.426L106.042 19.352C106.042 18.696 105.946 18.152 105.754 17.72C105.562 17.272 105.282 16.936 104.914 16.712C104.562 16.488 104.122 16.376 103.594 16.376C103.002 16.376 102.498 16.512 102.082 16.784C101.666 17.056 101.346 17.448 101.122 17.96C100.898 18.472 100.786 19.088 100.786 19.808V20C100.786 21.216 101.066 22.112 101.626 22.688C102.202 23.264 103.05 23.552 104.17 23.552C104.554 23.552 104.994 23.504 105.49 23.408C105.986 23.312 106.45 23.16 106.882 22.952C107.25 22.776 107.578 22.72 107.866 22.784C108.154 22.832 108.378 22.96 108.538 23.168C108.698 23.376 108.786 23.616 108.802 23.888C108.834 24.16 108.778 24.432 108.634 24.704C108.49 24.96 108.25 25.176 107.914 25.352C107.37 25.656 106.754 25.88 106.066 26.024C105.394 26.184 104.738 26.264 104.098 26.264ZM116.864 26.264C115.76 26.264 114.832 26.08 114.08 25.712C113.344 25.344 112.792 24.808 112.424 24.104C112.072 23.4 111.896 22.512 111.896 21.44V16.928H110.888C110.44 16.928 110.088 16.808 109.832 16.568C109.591 16.328 109.471 16 109.471 15.584C109.471 15.136 109.591 14.8 109.832 14.576C110.088 14.336 110.44 14.216 110.888 14.216H111.896V12.392C111.896 11.784 112.056 11.328 112.376 11.024C112.696 10.704 113.144 10.544 113.72 10.544C114.312 10.544 114.76 10.704 115.064 11.024C115.368 11.328 115.52 11.784 115.52 12.392V14.216H117.8C118.248 14.216 118.592 14.336 118.832 14.576C119.072 14.8 119.192 15.136 119.192 15.584C119.192 16 119.072 16.328 118.832 16.568C118.592 16.808 118.248 16.928 117.8 16.928H115.52V21.296C115.52 21.968 115.672 22.472 115.976 22.808C116.296 23.144 116.8 23.312 117.488 23.312C117.728 23.312 117.952 23.288 118.16 23.24C118.368 23.192 118.56 23.16 118.736 23.144C118.96 23.128 119.144 23.2 119.288 23.36C119.432 23.504 119.504 23.832 119.504 24.344C119.504 24.728 119.44 25.064 119.312 25.352C119.184 25.64 118.96 25.848 118.64 25.976C118.432 26.056 118.144 26.12 117.776 26.168C117.424 26.232 117.12 26.264 116.864 26.264Z"/>
<path d="M123.039 26C122.415 26 121.935 25.832 121.599 25.496C121.263 25.16 121.095 24.68 121.095 24.056V11.024C121.095 10.4 121.263 9.92 121.599 9.584C121.935 9.248 122.415 9.08 123.039 9.08H128.847C130.047 9.08 131.071 9.256 131.919 9.608C132.767 9.96 133.407 10.464 133.839 11.12C134.287 11.776 134.511 12.56 134.511 13.472C134.511 14.48 134.223 15.336 133.647 16.04C133.071 16.744 132.279 17.216 131.271 17.456V17.072C132.439 17.28 133.343 17.744 133.983 18.464C134.639 19.168 134.967 20.088 134.967 21.224C134.967 22.728 134.447 23.904 133.407 24.752C132.367 25.584 130.935 26 129.111 26H123.039ZM124.647 23.24H128.607C129.567 23.24 130.271 23.056 130.719 22.688C131.167 22.304 131.391 21.744 131.391 21.008C131.391 20.272 131.167 19.72 130.719 19.352C130.271 18.984 129.567 18.8 128.607 18.8H124.647V23.24ZM124.647 16.04H128.199C129.127 16.04 129.815 15.864 130.263 15.512C130.711 15.16 130.935 14.632 130.935 13.928C130.935 13.24 130.711 12.72 130.263 12.368C129.815 12.016 129.127 11.84 128.199 11.84H124.647V16.04ZM141.454 26.264C140.59 26.264 139.814 26.096 139.126 25.76C138.438 25.424 137.902 24.968 137.518 24.392C137.134 23.816 136.942 23.168 136.942 22.448C136.942 21.584 137.166 20.904 137.614 20.408C138.062 19.896 138.79 19.536 139.798 19.328C140.806 19.104 142.142 18.992 143.806 18.992H145.078V20.864H143.83C143.014 20.864 142.35 20.912 141.838 21.008C141.342 21.088 140.982 21.232 140.758 21.44C140.55 21.648 140.446 21.936 140.446 22.304C140.446 22.752 140.598 23.12 140.902 23.408C141.222 23.696 141.678 23.84 142.27 23.84C142.734 23.84 143.142 23.736 143.494 23.528C143.862 23.304 144.15 23.008 144.358 22.64C144.566 22.256 144.67 21.824 144.67 21.344V18.584C144.67 17.88 144.51 17.384 144.19 17.096C143.87 16.792 143.326 16.64 142.558 16.64C142.126 16.64 141.654 16.696 141.142 16.808C140.646 16.904 140.094 17.072 139.486 17.312C139.134 17.472 138.822 17.512 138.55 17.432C138.278 17.336 138.07 17.176 137.926 16.952C137.782 16.712 137.71 16.456 137.71 16.184C137.71 15.896 137.79 15.624 137.95 15.368C138.11 15.096 138.374 14.896 138.742 14.768C139.494 14.464 140.198 14.256 140.854 14.144C141.526 14.032 142.142 13.976 142.702 13.976C143.934 13.976 144.942 14.16 145.726 14.528C146.526 14.88 147.126 15.432 147.526 16.184C147.926 16.92 148.126 17.872 148.126 19.04V24.368C148.126 24.96 147.982 25.416 147.694 25.736C147.406 26.056 146.99 26.216 146.446 26.216C145.902 26.216 145.478 26.056 145.174 25.736C144.886 25.416 144.742 24.96 144.742 24.368V23.48L144.91 23.624C144.814 24.168 144.606 24.64 144.286 25.04C143.982 25.424 143.59 25.728 143.11 25.952C142.63 26.16 142.078 26.264 141.454 26.264ZM151.838 26C151.486 26 151.19 25.912 150.95 25.736C150.71 25.544 150.55 25.304 150.47 25.016C150.39 24.728 150.39 24.416 150.47 24.08C150.566 23.744 150.75 23.432 151.021 23.144L156.902 16.088V16.928H151.694C151.262 16.928 150.926 16.808 150.686 16.568C150.446 16.328 150.326 16 150.326 15.584C150.326 15.136 150.446 14.8 150.686 14.576C150.926 14.336 151.262 14.216 151.694 14.216H158.63C159.062 14.216 159.406 14.312 159.662 14.504C159.918 14.696 160.086 14.936 160.166 15.224C160.262 15.496 160.27 15.8 160.19 16.136C160.126 16.456 159.958 16.76 159.686 17.048L153.662 24.248V23.312H159.23C160.142 23.312 160.598 23.76 160.598 24.656C160.598 25.088 160.478 25.424 160.238 25.664C159.998 25.888 159.662 26 159.23 26H151.838ZM166.228 26.264C165.364 26.264 164.588 26.096 163.9 25.76C163.212 25.424 162.676 24.968 162.292 24.392C161.908 23.816 161.716 23.168 161.716 22.448C161.716 21.584 161.94 20.904 162.388 20.408C162.836 19.896 163.564 19.536 164.572 19.328C165.58 19.104 166.916 18.992 168.58 18.992H169.852V20.864H168.604C167.788 20.864 167.124 20.912 166.612 21.008C166.116 21.088 165.756 21.232 165.532 21.44C165.324 21.648 165.22 21.936 165.22 22.304C165.22 22.752 165.372 23.12 165.676 23.408C165.996 23.696 166.452 23.84 167.044 23.84C167.508 23.84 167.916 23.736 168.268 23.528C168.636 23.304 168.924 23.008 169.132 22.64C169.34 22.256 169.444 21.824 169.444 21.344V18.584C169.444 17.88 169.284 17.384 168.964 17.096C168.644 16.792 168.1 16.64 167.332 16.64C166.9 16.64 166.428 16.696 165.916 16.808C165.42 16.904 164.868 17.072 164.26 17.312C163.908 17.472 163.596 17.512 163.324 17.432C163.052 17.336 162.844 17.176 162.7 16.952C162.556 16.712 162.484 16.456 162.484 16.184C162.484 15.896 162.564 15.624 162.724 15.368C162.884 15.096 163.148 14.896 163.516 14.768C164.268 14.464 164.972 14.256 165.628 14.144C166.3 14.032 166.916 13.976 167.476 13.976C168.708 13.976 169.716 14.16 170.5 14.528C171.3 14.88 171.9 15.432 172.3 16.184C172.7 16.92 172.9 17.872 172.9 19.04V24.368C172.9 24.96 172.756 25.416 172.468 25.736C172.18 26.056 171.764 26.216 171.22 26.216C170.676 26.216 170.252 26.056 169.948 25.736C169.66 25.416 169.516 24.96 169.516 24.368V23.48L169.684 23.624C169.588 24.168 169.38 24.64 169.06 25.04C168.756 25.424 168.364 25.728 167.884 25.952C167.404 26.16 166.852 26.264 166.228 26.264ZM177.475 26.216C176.867 26.216 176.403 26.056 176.083 25.736C175.763 25.416 175.603 24.96 175.603 24.368V15.848C175.603 15.256 175.755 14.808 176.059 14.504C176.379 14.184 176.819 14.024 177.379 14.024C177.955 14.024 178.395 14.184 178.699 14.504C179.003 14.808 179.155 15.256 179.155 15.848V17.096H178.915C179.107 16.136 179.531 15.392 180.187 14.864C180.843 14.336 181.691 14.04 182.731 13.976C183.131 13.944 183.435 14.048 183.643 14.288C183.867 14.512 183.987 14.888 184.003 15.416C184.035 15.912 183.931 16.304 183.691 16.592C183.467 16.88 183.083 17.056 182.539 17.12L181.987 17.168C181.075 17.248 180.395 17.512 179.947 17.96C179.515 18.408 179.299 19.056 179.299 19.904V24.368C179.299 24.96 179.139 25.416 178.819 25.736C178.515 26.056 178.067 26.216 177.475 26.216Z"/>
</mask>
<path d="M46.08 26.264C44.176 26.264 42.56 25.904 41.232 25.184C39.92 24.464 38.92 23.456 38.232 22.16C37.544 20.864 37.2 19.344 37.2 17.6C37.2 16.256 37.4 15.048 37.8 13.976C38.216 12.888 38.808 11.968 39.576 11.216C40.36 10.448 41.304 9.856 42.408 9.44C43.528 9.024 44.792 8.816 46.2 8.816C47.064 8.816 47.928 8.912 48.792 9.104C49.656 9.296 50.488 9.616 51.288 10.064C51.624 10.256 51.848 10.504 51.96 10.808C52.088 11.096 52.12 11.408 52.056 11.744C52.008 12.064 51.88 12.352 51.672 12.608C51.48 12.848 51.224 13.008 50.904 13.088C50.6 13.152 50.248 13.088 49.848 12.896C49.32 12.608 48.76 12.4 48.168 12.272C47.576 12.128 46.928 12.056 46.224 12.056C45.088 12.056 44.136 12.272 43.368 12.704C42.6 13.12 42.024 13.744 41.64 14.576C41.272 15.392 41.088 16.4 41.088 17.6C41.088 19.408 41.52 20.776 42.384 21.704C43.264 22.632 44.56 23.096 46.272 23.096C46.848 23.096 47.44 23.04 48.048 22.928C48.656 22.816 49.256 22.656 49.848 22.448L49.152 23.96V19.352H46.992C46.512 19.352 46.144 19.232 45.888 18.992C45.632 18.752 45.504 18.424 45.504 18.008C45.504 17.576 45.632 17.248 45.888 17.024C46.144 16.784 46.512 16.664 46.992 16.664H50.76C51.24 16.664 51.6 16.792 51.84 17.048C52.096 17.304 52.224 17.672 52.224 18.152V23.72C52.224 24.136 52.144 24.488 51.984 24.776C51.824 25.064 51.552 25.272 51.168 25.4C50.448 25.656 49.64 25.864 48.744 26.024C47.848 26.184 46.96 26.264 46.08 26.264ZM59.1885 26.264C58.3245 26.264 57.5485 26.096 56.8605 25.76C56.1725 25.424 55.6365 24.968 55.2525 24.392C54.8685 23.816 54.6765 23.168 54.6765 22.448C54.6765 21.584 54.9005 20.904 55.3485 20.408C55.7965 19.896 56.5245 19.536 57.5325 19.328C58.5405 19.104 59.8765 18.992 61.5405 18.992H62.8125V20.864H61.5645C60.7485 20.864 60.0845 20.912 59.5725 21.008C59.0765 21.088 58.7165 21.232 58.4925 21.44C58.2845 21.648 58.1805 21.936 58.1805 22.304C58.1805 22.752 58.3325 23.12 58.6365 23.408C58.9565 23.696 59.4125 23.84 60.0045 23.84C60.4685 23.84 60.8765 23.736 61.2285 23.528C61.5965 23.304 61.8845 23.008 62.0925 22.64C62.3005 22.256 62.4045 21.824 62.4045 21.344V18.584C62.4045 17.88 62.2445 17.384 61.9245 17.096C61.6045 16.792 61.0605 16.64 60.2925 16.64C59.8605 16.64 59.3885 16.696 58.8765 16.808C58.3805 16.904 57.8285 17.072 57.2205 17.312C56.8685 17.472 56.5565 17.512 56.2845 17.432C56.0125 17.336 55.8045 17.176 55.6605 16.952C55.5165 16.712 55.4445 16.456 55.4445 16.184C55.4445 15.896 55.5245 15.624 55.6845 15.368C55.8445 15.096 56.1085 14.896 56.4765 14.768C57.2285 14.464 57.9325 14.256 58.5885 14.144C59.2605 14.032 59.8765 13.976 60.4365 13.976C61.6685 13.976 62.6765 14.16 63.4605 14.528C64.2605 14.88 64.8605 15.432 65.2605 16.184C65.6605 16.92 65.8605 17.872 65.8605 19.04V24.368C65.8605 24.96 65.7165 25.416 65.4285 25.736C65.1405 26.056 64.7245 26.216 64.1805 26.216C63.6365 26.216 63.2125 26.056 62.9085 25.736C62.6205 25.416 62.4765 24.96 62.4765 24.368V23.48L62.6445 23.624C62.5485 24.168 62.3405 24.64 62.0205 25.04C61.7165 25.424 61.3245 25.728 60.8445 25.952C60.3645 26.16 59.8125 26.264 59.1885 26.264ZM73.1479 26.264C72.1239 26.264 71.2199 26.016 70.4359 25.52C69.6679 25.024 69.0679 24.312 68.6359 23.384C68.2039 22.456 67.9879 21.36 67.9879 20.096C67.9879 18.832 68.2039 17.744 68.6359 16.832C69.0679 15.92 69.6679 15.216 70.4359 14.72C71.2199 14.224 72.1239 13.976 73.1479 13.976C74.0759 13.976 74.8919 14.2 75.5959 14.648C76.3159 15.096 76.8039 15.68 77.0599 16.4H76.7959V10.712C76.7959 10.104 76.9479 9.648 77.2519 9.344C77.5559 9.024 78.0039 8.864 78.5959 8.864C79.1719 8.864 79.6199 9.024 79.9399 9.344C80.2599 9.648 80.4199 10.104 80.4199 10.712V24.368C80.4199 24.96 80.2599 25.416 79.9399 25.736C79.6359 26.056 79.1959 26.216 78.6199 26.216C78.0439 26.216 77.5959 26.056 77.2759 25.736C76.9719 25.416 76.8199 24.96 76.8199 24.368V22.736L77.0839 23.672C76.8599 24.456 76.3799 25.088 75.6439 25.568C74.9239 26.032 74.0919 26.264 73.1479 26.264ZM74.2279 23.552C74.7559 23.552 75.2119 23.424 75.5959 23.168C75.9799 22.912 76.2839 22.536 76.5079 22.04C76.7319 21.528 76.8439 20.88 76.8439 20.096C76.8439 18.928 76.6039 18.072 76.1239 17.528C75.6439 16.968 75.0119 16.688 74.2279 16.688C73.7159 16.688 73.2599 16.808 72.8599 17.048C72.4759 17.288 72.1719 17.664 71.9479 18.176C71.7399 18.672 71.6359 19.312 71.6359 20.096C71.6359 21.264 71.8759 22.136 72.3559 22.712C72.8359 23.272 73.4599 23.552 74.2279 23.552ZM88.8763 30.584C88.0123 30.584 87.1803 30.512 86.3803 30.368C85.5963 30.224 84.9003 30.008 84.2923 29.72C83.9243 29.56 83.6603 29.352 83.5003 29.096C83.3563 28.84 83.2923 28.568 83.3083 28.28C83.3403 27.992 83.4363 27.736 83.5963 27.512C83.7723 27.288 83.9883 27.128 84.2443 27.032C84.5003 26.952 84.7723 26.976 85.0603 27.104C85.7643 27.424 86.4123 27.632 87.0043 27.728C87.6123 27.824 88.1323 27.872 88.5643 27.872C89.5883 27.872 90.3563 27.64 90.8683 27.176C91.3803 26.712 91.6363 26 91.6363 25.04V23.216H91.8523C91.6123 23.952 91.1163 24.552 90.3643 25.016C89.6123 25.48 88.7803 25.712 87.8683 25.712C86.8123 25.712 85.8923 25.472 85.1083 24.992C84.3243 24.496 83.7163 23.808 83.2843 22.928C82.8523 22.032 82.6363 21 82.6363 19.832C82.6363 18.952 82.7563 18.152 82.9963 17.432C83.2523 16.712 83.6043 16.096 84.0523 15.584C84.5163 15.072 85.0683 14.68 85.7083 14.408C86.3643 14.12 87.0843 13.976 87.8683 13.976C88.8123 13.976 89.6443 14.208 90.3643 14.672C91.1003 15.12 91.5883 15.712 91.8283 16.448L91.5883 17.216V15.848C91.5883 15.256 91.7403 14.808 92.0443 14.504C92.3643 14.184 92.8123 14.024 93.3883 14.024C93.9643 14.024 94.4043 14.184 94.7083 14.504C95.0123 14.808 95.1643 15.256 95.1643 15.848V24.632C95.1643 26.6 94.6203 28.08 93.5323 29.072C92.4603 30.08 90.9083 30.584 88.8763 30.584ZM88.9483 23C89.4923 23 89.9563 22.872 90.3403 22.616C90.7403 22.36 91.0523 22 91.2763 21.536C91.5003 21.056 91.6123 20.488 91.6123 19.832C91.6123 18.84 91.3643 18.072 90.8683 17.528C90.3883 16.968 89.7483 16.688 88.9483 16.688C88.4043 16.688 87.9323 16.816 87.5323 17.072C87.1323 17.312 86.8203 17.672 86.5963 18.152C86.3883 18.616 86.2843 19.176 86.2843 19.832C86.2843 20.824 86.5243 21.6 87.0043 22.16C87.4843 22.72 88.1323 23 88.9483 23ZM104.098 26.264C102.706 26.264 101.506 26.016 100.498 25.52C99.5059 25.008 98.7379 24.296 98.1939 23.384C97.6659 22.456 97.4019 21.368 97.4019 20.12C97.4019 18.904 97.6579 17.84 98.1699 16.928C98.6819 16 99.3939 15.28 100.306 14.768C101.234 14.24 102.282 13.976 103.45 13.976C104.298 13.976 105.066 14.12 105.754 14.408C106.442 14.68 107.034 15.08 107.53 15.608C108.026 16.12 108.402 16.752 108.658 17.504C108.914 18.24 109.042 19.064 109.042 19.976C109.042 20.28 108.946 20.512 108.754 20.672C108.562 20.816 108.282 20.888 107.914 20.888H100.378V19.016H106.426L106.042 19.352C106.042 18.696 105.946 18.152 105.754 17.72C105.562 17.272 105.282 16.936 104.914 16.712C104.562 16.488 104.122 16.376 103.594 16.376C103.002 16.376 102.498 16.512 102.082 16.784C101.666 17.056 101.346 17.448 101.122 17.96C100.898 18.472 100.786 19.088 100.786 19.808V20C100.786 21.216 101.066 22.112 101.626 22.688C102.202 23.264 103.05 23.552 104.17 23.552C104.554 23.552 104.994 23.504 105.49 23.408C105.986 23.312 106.45 23.16 106.882 22.952C107.25 22.776 107.578 22.72 107.866 22.784C108.154 22.832 108.378 22.96 108.538 23.168C108.698 23.376 108.786 23.616 108.802 23.888C108.834 24.16 108.778 24.432 108.634 24.704C108.49 24.96 108.25 25.176 107.914 25.352C107.37 25.656 106.754 25.88 106.066 26.024C105.394 26.184 104.738 26.264 104.098 26.264ZM116.864 26.264C115.76 26.264 114.832 26.08 114.08 25.712C113.344 25.344 112.792 24.808 112.424 24.104C112.072 23.4 111.896 22.512 111.896 21.44V16.928H110.888C110.44 16.928 110.088 16.808 109.832 16.568C109.591 16.328 109.471 16 109.471 15.584C109.471 15.136 109.591 14.8 109.832 14.576C110.088 14.336 110.44 14.216 110.888 14.216H111.896V12.392C111.896 11.784 112.056 11.328 112.376 11.024C112.696 10.704 113.144 10.544 113.72 10.544C114.312 10.544 114.76 10.704 115.064 11.024C115.368 11.328 115.52 11.784 115.52 12.392V14.216H117.8C118.248 14.216 118.592 14.336 118.832 14.576C119.072 14.8 119.192 15.136 119.192 15.584C119.192 16 119.072 16.328 118.832 16.568C118.592 16.808 118.248 16.928 117.8 16.928H115.52V21.296C115.52 21.968 115.672 22.472 115.976 22.808C116.296 23.144 116.8 23.312 117.488 23.312C117.728 23.312 117.952 23.288 118.16 23.24C118.368 23.192 118.56 23.16 118.736 23.144C118.96 23.128 119.144 23.2 119.288 23.36C119.432 23.504 119.504 23.832 119.504 24.344C119.504 24.728 119.44 25.064 119.312 25.352C119.184 25.64 118.96 25.848 118.64 25.976C118.432 26.056 118.144 26.12 117.776 26.168C117.424 26.232 117.12 26.264 116.864 26.264Z" fill="black"/>
<path d="M123.039 26C122.415 26 121.935 25.832 121.599 25.496C121.263 25.16 121.095 24.68 121.095 24.056V11.024C121.095 10.4 121.263 9.92 121.599 9.584C121.935 9.248 122.415 9.08 123.039 9.08H128.847C130.047 9.08 131.071 9.256 131.919 9.608C132.767 9.96 133.407 10.464 133.839 11.12C134.287 11.776 134.511 12.56 134.511 13.472C134.511 14.48 134.223 15.336 133.647 16.04C133.071 16.744 132.279 17.216 131.271 17.456V17.072C132.439 17.28 133.343 17.744 133.983 18.464C134.639 19.168 134.967 20.088 134.967 21.224C134.967 22.728 134.447 23.904 133.407 24.752C132.367 25.584 130.935 26 129.111 26H123.039ZM124.647 23.24H128.607C129.567 23.24 130.271 23.056 130.719 22.688C131.167 22.304 131.391 21.744 131.391 21.008C131.391 20.272 131.167 19.72 130.719 19.352C130.271 18.984 129.567 18.8 128.607 18.8H124.647V23.24ZM124.647 16.04H128.199C129.127 16.04 129.815 15.864 130.263 15.512C130.711 15.16 130.935 14.632 130.935 13.928C130.935 13.24 130.711 12.72 130.263 12.368C129.815 12.016 129.127 11.84 128.199 11.84H124.647V16.04ZM141.454 26.264C140.59 26.264 139.814 26.096 139.126 25.76C138.438 25.424 137.902 24.968 137.518 24.392C137.134 23.816 136.942 23.168 136.942 22.448C136.942 21.584 137.166 20.904 137.614 20.408C138.062 19.896 138.79 19.536 139.798 19.328C140.806 19.104 142.142 18.992 143.806 18.992H145.078V20.864H143.83C143.014 20.864 142.35 20.912 141.838 21.008C141.342 21.088 140.982 21.232 140.758 21.44C140.55 21.648 140.446 21.936 140.446 22.304C140.446 22.752 140.598 23.12 140.902 23.408C141.222 23.696 141.678 23.84 142.27 23.84C142.734 23.84 143.142 23.736 143.494 23.528C143.862 23.304 144.15 23.008 144.358 22.64C144.566 22.256 144.67 21.824 144.67 21.344V18.584C144.67 17.88 144.51 17.384 144.19 17.096C143.87 16.792 143.326 16.64 142.558 16.64C142.126 16.64 141.654 16.696 141.142 16.808C140.646 16.904 140.094 17.072 139.486 17.312C139.134 17.472 138.822 17.512 138.55 17.432C138.278 17.336 138.07 17.176 137.926 16.952C137.782 16.712 137.71 16.456 137.71 16.184C137.71 15.896 137.79 15.624 137.95 15.368C138.11 15.096 138.374 14.896 138.742 14.768C139.494 14.464 140.198 14.256 140.854 14.144C141.526 14.032 142.142 13.976 142.702 13.976C143.934 13.976 144.942 14.16 145.726 14.528C146.526 14.88 147.126 15.432 147.526 16.184C147.926 16.92 148.126 17.872 148.126 19.04V24.368C148.126 24.96 147.982 25.416 147.694 25.736C147.406 26.056 146.99 26.216 146.446 26.216C145.902 26.216 145.478 26.056 145.174 25.736C144.886 25.416 144.742 24.96 144.742 24.368V23.48L144.91 23.624C144.814 24.168 144.606 24.64 144.286 25.04C143.982 25.424 143.59 25.728 143.11 25.952C142.63 26.16 142.078 26.264 141.454 26.264ZM151.838 26C151.486 26 151.19 25.912 150.95 25.736C150.71 25.544 150.55 25.304 150.47 25.016C150.39 24.728 150.39 24.416 150.47 24.08C150.566 23.744 150.75 23.432 151.021 23.144L156.902 16.088V16.928H151.694C151.262 16.928 150.926 16.808 150.686 16.568C150.446 16.328 150.326 16 150.326 15.584C150.326 15.136 150.446 14.8 150.686 14.576C150.926 14.336 151.262 14.216 151.694 14.216H158.63C159.062 14.216 159.406 14.312 159.662 14.504C159.918 14.696 160.086 14.936 160.166 15.224C160.262 15.496 160.27 15.8 160.19 16.136C160.126 16.456 159.958 16.76 159.686 17.048L153.662 24.248V23.312H159.23C160.142 23.312 160.598 23.76 160.598 24.656C160.598 25.088 160.478 25.424 160.238 25.664C159.998 25.888 159.662 26 159.23 26H151.838ZM166.228 26.264C165.364 26.264 164.588 26.096 163.9 25.76C163.212 25.424 162.676 24.968 162.292 24.392C161.908 23.816 161.716 23.168 161.716 22.448C161.716 21.584 161.94 20.904 162.388 20.408C162.836 19.896 163.564 19.536 164.572 19.328C165.58 19.104 166.916 18.992 168.58 18.992H169.852V20.864H168.604C167.788 20.864 167.124 20.912 166.612 21.008C166.116 21.088 165.756 21.232 165.532 21.44C165.324 21.648 165.22 21.936 165.22 22.304C165.22 22.752 165.372 23.12 165.676 23.408C165.996 23.696 166.452 23.84 167.044 23.84C167.508 23.84 167.916 23.736 168.268 23.528C168.636 23.304 168.924 23.008 169.132 22.64C169.34 22.256 169.444 21.824 169.444 21.344V18.584C169.444 17.88 169.284 17.384 168.964 17.096C168.644 16.792 168.1 16.64 167.332 16.64C166.9 16.64 166.428 16.696 165.916 16.808C165.42 16.904 164.868 17.072 164.26 17.312C163.908 17.472 163.596 17.512 163.324 17.432C163.052 17.336 162.844 17.176 162.7 16.952C162.556 16.712 162.484 16.456 162.484 16.184C162.484 15.896 162.564 15.624 162.724 15.368C162.884 15.096 163.148 14.896 163.516 14.768C164.268 14.464 164.972 14.256 165.628 14.144C166.3 14.032 166.916 13.976 167.476 13.976C168.708 13.976 169.716 14.16 170.5 14.528C171.3 14.88 171.9 15.432 172.3 16.184C172.7 16.92 172.9 17.872 172.9 19.04V24.368C172.9 24.96 172.756 25.416 172.468 25.736C172.18 26.056 171.764 26.216 171.22 26.216C170.676 26.216 170.252 26.056 169.948 25.736C169.66 25.416 169.516 24.96 169.516 24.368V23.48L169.684 23.624C169.588 24.168 169.38 24.64 169.06 25.04C168.756 25.424 168.364 25.728 167.884 25.952C167.404 26.16 166.852 26.264 166.228 26.264ZM177.475 26.216C176.867 26.216 176.403 26.056 176.083 25.736C175.763 25.416 175.603 24.96 175.603 24.368V15.848C175.603 15.256 175.755 14.808 176.059 14.504C176.379 14.184 176.819 14.024 177.379 14.024C177.955 14.024 178.395 14.184 178.699 14.504C179.003 14.808 179.155 15.256 179.155 15.848V17.096H178.915C179.107 16.136 179.531 15.392 180.187 14.864C180.843 14.336 181.691 14.04 182.731 13.976C183.131 13.944 183.435 14.048 183.643 14.288C183.867 14.512 183.987 14.888 184.003 15.416C184.035 15.912 183.931 16.304 183.691 16.592C183.467 16.88 183.083 17.056 182.539 17.12L181.987 17.168C181.075 17.248 180.395 17.512 179.947 17.96C179.515 18.408 179.299 19.056 179.299 19.904V24.368C179.299 24.96 179.139 25.416 178.819 25.736C178.515 26.056 178.067 26.216 177.475 26.216Z" fill="#3498DB"/>
<path d="M41.232 25.184L40.7509 26.0607L40.7554 26.0631L41.232 25.184ZM38.232 22.16L39.1153 21.6911L38.232 22.16ZM37.8 13.976L36.8659 13.6188L36.8631 13.6264L37.8 13.976ZM39.576 11.216L40.2756 11.9305L40.2758 11.9304L39.576 11.216ZM42.408 9.44L42.0598 8.50256L42.0554 8.50423L42.408 9.44ZM48.792 9.104L49.0089 8.12781L49.0089 8.12781L48.792 9.104ZM51.288 10.064L51.7842 9.19572L51.7766 9.19149L51.288 10.064ZM51.96 10.808L51.0217 11.1537L51.0329 11.1843L51.0462 11.2141L51.96 10.808ZM52.056 11.744L51.0737 11.5569L51.07 11.5762L51.0671 11.5957L52.056 11.744ZM51.672 12.608L50.8959 11.9774L50.8911 11.9833L51.672 12.608ZM50.904 13.088L51.11 14.0665L51.1284 14.0627L51.1465 14.0581L50.904 13.088ZM49.848 12.896L49.3691 13.7739L49.3919 13.7863L49.4153 13.7975L49.848 12.896ZM48.168 12.272L47.9316 13.2437L47.9441 13.2467L47.9567 13.2494L48.168 12.272ZM43.368 12.704L43.8443 13.5833L43.8513 13.5795L43.8583 13.5756L43.368 12.704ZM41.64 14.576L40.732 14.1569L40.7284 14.1649L41.64 14.576ZM42.384 21.704L41.6521 22.3854L41.6584 22.3921L42.384 21.704ZM48.048 22.928L48.2292 23.9115L48.048 22.928ZM49.848 22.448L50.7564 22.8661L51.7433 20.7222L49.5165 21.5045L49.848 22.448ZM49.152 23.96H48.152L50.0604 24.3781L49.152 23.96ZM49.152 19.352H50.152V18.352H49.152V19.352ZM45.888 18.992L46.5719 18.2625H46.5719L45.888 18.992ZM45.888 17.024L46.5465 17.7766L46.5594 17.7653L46.5719 17.7535L45.888 17.024ZM51.84 17.048L51.1105 17.7319L51.1215 17.7437L51.1329 17.7551L51.84 17.048ZM51.984 24.776L51.1098 24.2904L51.1098 24.2904L51.984 24.776ZM51.168 25.4L50.8518 24.4513L50.8424 24.4545L50.833 24.4578L51.168 25.4ZM48.744 26.024L48.5682 25.0396L48.744 26.024ZM46.08 25.264C44.3 25.264 42.857 24.9275 41.7086 24.3049L40.7554 26.0631C42.263 26.8805 44.052 27.264 46.08 27.264V25.264ZM41.7131 24.3073C40.5684 23.6792 39.7099 22.8113 39.1153 21.6911L37.3487 22.6289C38.1301 24.1007 39.2716 25.2488 40.7509 26.0607L41.7131 24.3073ZM39.1153 21.6911C38.5171 20.5644 38.2 19.2113 38.2 17.6H36.2C36.2 19.4767 36.5709 21.1636 37.3487 22.6289L39.1153 21.6911ZM38.2 17.6C38.2 16.3549 38.3852 15.2681 38.7369 14.3256L36.8631 13.6264C36.4148 14.8279 36.2 16.1571 36.2 17.6H38.2ZM38.7341 14.3331C39.1029 13.3683 39.619 12.5735 40.2756 11.9305L38.8764 10.5015C37.997 11.3625 37.3291 12.4077 36.8659 13.6189L38.7341 14.3331ZM40.2758 11.9304C40.9534 11.2666 41.7766 10.7466 42.7606 10.3758L42.0554 8.50423C40.8314 8.96543 39.7666 9.62943 38.8762 10.5016L40.2758 11.9304ZM42.7562 10.3774C43.7468 10.0095 44.8901 9.816 46.2 9.816V7.816C44.6939 7.816 43.3092 8.03853 42.0598 8.50257L42.7562 10.3774ZM46.2 9.816C46.9893 9.816 47.7806 9.90363 48.5751 10.0802L49.0089 8.12781C48.0754 7.92037 47.1387 7.816 46.2 7.816V9.816ZM48.5751 10.0802C49.3406 10.2503 50.0813 10.5344 50.7994 10.9365L51.7766 9.19149C50.8947 8.6976 49.9714 8.3417 49.0089 8.12781L48.5751 10.0802ZM50.7919 10.9322C50.9651 11.0312 51.0061 11.1115 51.0217 11.1537L52.8983 10.4623C52.6899 9.89645 52.2829 9.48077 51.7841 9.19576L50.7919 10.9322ZM51.0462 11.2141C51.0843 11.3 51.103 11.4031 51.0737 11.5569L53.0383 11.9311C53.137 11.4129 53.0917 10.892 52.8738 10.4019L51.0462 11.2141ZM51.0671 11.5957C51.0461 11.7352 50.9934 11.8574 50.8959 11.9774L52.4481 13.2386C52.7666 12.8466 52.9699 12.3928 53.0449 11.8923L51.0671 11.5957ZM50.8911 11.9833C50.8462 12.0395 50.7856 12.0868 50.6615 12.1179L51.1465 14.0581C51.6624 13.9292 52.1138 13.6565 52.4529 13.2327L50.8911 11.9833ZM50.698 12.1094C50.6847 12.1122 50.5647 12.1308 50.2807 11.9945L49.4153 13.7975C49.9313 14.0452 50.5153 14.1918 51.11 14.0665L50.698 12.1094ZM50.3269 12.0181C49.7143 11.684 49.0641 11.4427 48.3793 11.2946L47.9567 13.2494C48.4559 13.3573 48.9257 13.532 49.3691 13.7739L50.3269 12.0181ZM48.4044 11.3003C47.7241 11.1349 46.9956 11.056 46.224 11.056V13.056C46.8604 13.056 47.4279 13.1211 47.9316 13.2437L48.4044 11.3003ZM46.224 11.056C44.9647 11.056 43.8326 11.2953 42.8777 11.8324L43.8583 13.5756C44.4394 13.2487 45.2113 13.056 46.224 13.056V11.056ZM42.8917 11.8247C41.9242 12.3488 41.2017 13.1393 40.732 14.1569L42.548 14.9951C42.8463 14.3487 43.2758 13.8912 43.8443 13.5833L42.8917 11.8247ZM40.7284 14.1649C40.2859 15.1462 40.088 16.304 40.088 17.6H42.088C42.088 16.496 42.2581 15.6378 42.5516 14.9871L40.7284 14.1649ZM40.088 17.6C40.088 19.5535 40.5544 21.2064 41.6521 22.3854L43.1159 21.0226C42.4856 20.3456 42.088 19.2625 42.088 17.6H40.088ZM41.6584 22.3921C42.7848 23.5799 44.3823 24.096 46.272 24.096V22.096C44.7377 22.096 43.7432 21.6841 43.1096 21.0159L41.6584 22.3921ZM46.272 24.096C46.913 24.096 47.5657 24.0337 48.2292 23.9115L47.8668 21.9445C47.3143 22.0463 46.783 22.096 46.272 22.096V24.096ZM48.2292 23.9115C48.889 23.7899 49.5392 23.6164 50.1795 23.3915L49.5165 21.5045C48.9728 21.6956 48.423 21.8421 47.8668 21.9445L48.2292 23.9115ZM48.9396 22.0299L48.2436 23.5419L50.0604 24.3781L50.7564 22.8661L48.9396 22.0299ZM50.152 23.96V19.352H48.152V23.96H50.152ZM49.152 18.352H46.992V20.352H49.152V18.352ZM46.992 18.352C46.6713 18.352 46.5834 18.2732 46.5719 18.2625L45.2041 19.7215C45.7046 20.1908 46.3527 20.352 46.992 20.352V18.352ZM46.5719 18.2625C46.5549 18.2465 46.504 18.2033 46.504 18.008H44.504C44.504 18.6447 44.7091 19.2575 45.2041 19.7215L46.5719 18.2625ZM46.504 18.008C46.504 17.889 46.5218 17.8267 46.5316 17.8015C46.5393 17.7818 46.5438 17.779 46.5465 17.7766L45.2295 16.2714C44.7006 16.7342 44.504 17.3712 44.504 18.008H46.504ZM46.5719 17.7535C46.5834 17.7428 46.6713 17.664 46.992 17.664V15.664C46.3527 15.664 45.7046 15.8252 45.2041 16.2945L46.5719 17.7535ZM46.992 17.664H50.76V15.664H46.992V17.664ZM50.76 17.664C50.9139 17.664 51.0061 17.6848 51.055 17.7022C51.0984 17.7176 51.109 17.7304 51.1105 17.7319L52.5695 16.3641C52.0789 15.8407 51.4113 15.664 50.76 15.664V17.664ZM51.1329 17.7551C51.1464 17.7686 51.224 17.8478 51.224 18.152H53.224C53.224 17.4962 53.0456 16.8394 52.5471 16.3409L51.1329 17.7551ZM51.224 18.152V23.72H53.224V18.152H51.224ZM51.224 23.72C51.224 24.0099 51.1684 24.185 51.1098 24.2904L52.8582 25.2616C53.1196 24.791 53.224 24.2621 53.224 23.72H51.224ZM51.1098 24.2904C51.0976 24.3123 51.0553 24.3835 50.8518 24.4513L51.4842 26.3487C52.0487 26.1605 52.5504 25.8157 52.8582 25.2616L51.1098 24.2904ZM50.833 24.4578C50.1735 24.6923 49.42 24.8875 48.5682 25.0396L48.9198 27.0084C49.86 26.8405 50.7225 26.6197 51.503 26.3422L50.833 24.4578ZM48.5682 25.0396C47.7282 25.1896 46.8991 25.264 46.08 25.264V27.264C47.0209 27.264 47.9678 27.1784 48.9198 27.0084L48.5682 25.0396ZM56.8605 25.76L57.2993 24.8614L56.8605 25.76ZM55.2525 24.392L54.4205 24.9467L55.2525 24.392ZM55.3485 20.408L56.0906 21.0783L56.0959 21.0724L56.1011 21.0665L55.3485 20.408ZM57.5325 19.328L57.7346 20.3074L57.742 20.3058L57.7494 20.3042L57.5325 19.328ZM62.8125 18.992H63.8125V17.992H62.8125V18.992ZM62.8125 20.864V21.864H63.8125V20.864H62.8125ZM59.5725 21.008L59.7317 21.9952L59.7443 21.9932L59.7568 21.9909L59.5725 21.008ZM58.4925 21.44L57.812 20.7072L57.7985 20.7198L57.7854 20.7329L58.4925 21.44ZM58.6365 23.408L57.9488 24.134L57.958 24.1427L57.9675 24.1513L58.6365 23.408ZM61.2285 23.528L61.7373 24.389L61.7484 24.3822L61.2285 23.528ZM62.0925 22.64L62.9631 23.1321L62.9675 23.1242L62.9718 23.1163L62.0925 22.64ZM61.9245 17.096L61.2358 17.821L61.2455 17.8303L61.2555 17.8393L61.9245 17.096ZM58.8765 16.808L59.0665 17.7898L59.0784 17.7875L59.0902 17.7849L58.8765 16.808ZM57.2205 17.312L56.8533 16.3818L56.8298 16.3911L56.8067 16.4016L57.2205 17.312ZM56.2845 17.432L55.9517 18.375L55.9768 18.3839L56.0023 18.3914L56.2845 17.432ZM55.6605 16.952L54.803 17.4665L54.811 17.4798L54.8193 17.4928L55.6605 16.952ZM55.6845 15.368L56.5325 15.898L56.5396 15.8866L56.5464 15.875L55.6845 15.368ZM56.4765 14.768L56.805 15.7125L56.8284 15.7044L56.8513 15.6951L56.4765 14.768ZM58.5885 14.144L58.4241 13.1576L58.4202 13.1583L58.5885 14.144ZM63.4605 14.528L63.0356 15.4332L63.0466 15.4384L63.0578 15.4433L63.4605 14.528ZM65.2605 16.184L64.3776 16.6536L64.3819 16.6615L65.2605 16.184ZM65.4285 25.736L64.6852 25.067L65.4285 25.736ZM62.9085 25.736L62.1652 26.405L62.1742 26.415L62.1835 26.4247L62.9085 25.736ZM62.4765 23.48L63.1273 22.7207L61.4765 21.3058V23.48H62.4765ZM62.6445 23.624L63.6293 23.7978L63.7284 23.236L63.2953 22.8647L62.6445 23.624ZM62.0205 25.04L61.2396 24.4153L61.2365 24.4193L62.0205 25.04ZM60.8445 25.952L61.2421 26.8696L61.2548 26.864L61.2674 26.8582L60.8445 25.952ZM59.1885 25.264C58.4569 25.264 57.834 25.1226 57.2993 24.8614L56.4217 26.6586C57.263 27.0694 58.1921 27.264 59.1885 27.264V25.264ZM57.2993 24.8614C56.7532 24.5947 56.3601 24.2506 56.0846 23.8373L54.4205 24.9467C54.9129 25.6854 55.5918 26.2533 56.4217 26.6586L57.2993 24.8614ZM56.0846 23.8373C55.8146 23.4324 55.6765 22.9789 55.6765 22.448H53.6765C53.6765 23.3571 53.9224 24.1996 54.4205 24.9467L56.0846 23.8373ZM55.6765 22.448C55.6765 21.7571 55.8526 21.3418 56.0906 21.0783L54.6064 19.7377C53.9484 20.4662 53.6765 21.4109 53.6765 22.448H55.6765ZM56.1011 21.0665C56.3485 20.7837 56.8363 20.4927 57.7346 20.3074L57.3304 18.3486C56.2127 18.5793 55.2445 19.0083 54.5959 19.7495L56.1011 21.0665ZM57.7494 20.3042C58.6565 20.1026 59.911 19.992 61.5405 19.992V17.992C59.842 17.992 58.4245 18.1054 57.3156 18.3518L57.7494 20.3042ZM61.5405 19.992H62.8125V17.992H61.5405V19.992ZM61.8125 18.992V20.864H63.8125V18.992H61.8125ZM62.8125 19.864H61.5645V21.864H62.8125V19.864ZM61.5645 19.864C60.7172 19.864 59.985 19.9132 59.3882 20.0251L59.7568 21.9909C60.184 21.9108 60.7798 21.864 61.5645 21.864V19.864ZM59.4133 20.0208C58.8357 20.1139 58.2468 20.3035 57.812 20.7072L59.173 22.1728C59.1862 22.1605 59.3173 22.0621 59.7317 21.9952L59.4133 20.0208ZM57.7854 20.7329C57.3454 21.1729 57.1805 21.7411 57.1805 22.304H59.1805C59.1805 22.2131 59.1934 22.1672 59.1991 22.1516C59.2033 22.14 59.2037 22.143 59.1996 22.1471L57.7854 20.7329ZM57.1805 22.304C57.1805 23.0052 57.4304 23.6429 57.9488 24.134L59.3242 22.682C59.2346 22.5971 59.1805 22.4988 59.1805 22.304H57.1805ZM57.9675 24.1513C58.5303 24.6578 59.2587 24.84 60.0045 24.84V22.84C59.5663 22.84 59.3827 22.7342 59.3055 22.6647L57.9675 24.1513ZM60.0045 24.84C60.6228 24.84 61.2113 24.6997 61.7372 24.3889L60.7198 22.6671C60.5417 22.7723 60.3142 22.84 60.0045 22.84V24.84ZM61.7484 24.3822C62.2594 24.0712 62.6694 23.6517 62.9631 23.1321L61.2219 22.1479C61.0996 22.3643 60.9336 22.5368 60.7086 22.6738L61.7484 24.3822ZM62.9718 23.1163C63.2667 22.5719 63.4045 21.9735 63.4045 21.344H61.4045C61.4045 21.6745 61.3343 21.9401 61.2132 22.1637L62.9718 23.1163ZM63.4045 21.344V18.584H61.4045V21.344H63.4045ZM63.4045 18.584C63.4045 17.771 63.2261 16.922 62.5935 16.3527L61.2555 17.8393C61.2629 17.846 61.4045 17.989 61.4045 18.584H63.4045ZM62.6133 16.371C62.0108 15.7987 61.1422 15.64 60.2925 15.64V17.64C60.9788 17.64 61.1982 17.7853 61.2358 17.821L62.6133 16.371ZM60.2925 15.64C59.7754 15.64 59.2307 15.7069 58.6628 15.8311L59.0902 17.7849C59.5463 17.6851 59.9456 17.64 60.2925 17.64V15.64ZM58.6865 15.8262C58.1154 15.9368 57.5029 16.1254 56.8533 16.3818L57.5877 18.2422C58.1541 18.0186 58.6456 17.8712 59.0665 17.7898L58.6865 15.8262ZM56.8067 16.4016C56.5935 16.4985 56.5363 16.4637 56.5667 16.4726L56.0023 18.3914C56.5767 18.5603 57.1435 18.4455 57.6343 18.2224L56.8067 16.4016ZM56.6173 16.489C56.5362 16.4604 56.5154 16.4325 56.5017 16.4112L54.8193 17.4928C55.0936 17.9195 55.4888 18.2116 55.9517 18.375L56.6173 16.489ZM56.518 16.4375C56.4644 16.3482 56.4445 16.2693 56.4445 16.184H54.4445C54.4445 16.6427 54.5686 17.0758 54.803 17.4665L56.518 16.4375ZM56.4445 16.184C56.4445 16.0927 56.4668 16.0031 56.5325 15.898L54.8365 14.838C54.5822 15.2449 54.4445 15.6993 54.4445 16.184H56.4445ZM56.5464 15.875C56.5598 15.8522 56.6066 15.7815 56.805 15.7125L56.148 13.8235C55.6104 14.0105 55.1292 14.3398 54.8226 14.861L56.5464 15.875ZM56.8513 15.6951C57.5506 15.4124 58.1849 15.2274 58.7568 15.1297L58.4202 13.1583C57.6801 13.2846 56.9063 13.5156 56.1017 13.8409L56.8513 15.6951ZM58.7529 15.1304C59.3818 15.0256 59.9419 14.976 60.4365 14.976V12.976C59.8111 12.976 59.1392 13.0384 58.4241 13.1576L58.7529 15.1304ZM60.4365 14.976C61.5793 14.976 62.4284 15.1482 63.0356 15.4332L63.8854 13.6228C62.9246 13.1718 61.7577 12.976 60.4365 12.976V14.976ZM63.0578 15.4433C63.658 15.7074 64.086 16.1054 64.3776 16.6536L66.1434 15.7144C65.635 14.7586 64.863 14.0526 63.8632 13.6127L63.0578 15.4433ZM64.3819 16.6615C64.677 17.2046 64.8605 17.9765 64.8605 19.04H66.8605C66.8605 17.7675 66.644 16.6354 66.1391 15.7065L64.3819 16.6615ZM64.8605 19.04V24.368H66.8605V19.04H64.8605ZM64.8605 24.368C64.8605 24.8062 64.7547 24.9898 64.6852 25.067L66.1718 26.405C66.6783 25.8422 66.8605 25.1138 66.8605 24.368H64.8605ZM64.6852 25.067C64.6345 25.1234 64.521 25.216 64.1805 25.216V27.216C64.928 27.216 65.6465 26.9886 66.1718 26.405L64.6852 25.067ZM64.1805 25.216C63.8424 25.216 63.7064 25.124 63.6335 25.0473L62.1835 26.4247C62.7186 26.988 63.4306 27.216 64.1805 27.216V25.216ZM63.6518 25.067C63.5823 24.9898 63.4765 24.8062 63.4765 24.368H61.4765C61.4765 25.1138 61.6587 25.8422 62.1652 26.405L63.6518 25.067ZM63.4765 24.368V23.48H61.4765V24.368H63.4765ZM61.8257 24.2393L61.9937 24.3833L63.2953 22.8647L63.1273 22.7207L61.8257 24.2393ZM61.6597 23.4502C61.5905 23.8425 61.4468 24.1563 61.2396 24.4153L62.8014 25.6647C63.2342 25.1237 63.5065 24.4935 63.6293 23.7978L61.6597 23.4502ZM61.2365 24.4193C61.0367 24.6716 60.7724 24.8821 60.4216 25.0458L61.2674 26.8582C61.8766 26.5739 62.3963 26.1764 62.8045 25.6607L61.2365 24.4193ZM60.4469 25.0344C60.1142 25.1786 59.7016 25.264 59.1885 25.264V27.264C59.9234 27.264 60.6148 27.1414 61.2421 26.8696L60.4469 25.0344ZM70.4359 25.52L69.8933 26.3601L69.9012 26.3651L70.4359 25.52ZM68.6359 23.384L67.7293 23.806L68.6359 23.384ZM68.6359 16.832L67.7321 16.4039L68.6359 16.832ZM70.4359 14.72L69.9012 13.8749L69.8933 13.88L70.4359 14.72ZM75.5959 14.648L75.059 15.4917L75.0676 15.4971L75.5959 14.648ZM77.0599 16.4V17.4H78.4768L78.0021 16.065L77.0599 16.4ZM76.7959 16.4H75.7959V17.4H76.7959V16.4ZM77.2519 9.344L77.959 10.0511L77.968 10.042L77.9769 10.0327L77.2519 9.344ZM79.9399 9.344L79.2328 10.0511L79.2418 10.0602L79.2511 10.069L79.9399 9.344ZM79.9399 25.736L79.2328 25.0289L79.2237 25.038L79.2149 25.0473L79.9399 25.736ZM77.2759 25.736L76.5509 26.4247L76.5597 26.434L76.5688 26.4431L77.2759 25.736ZM76.8199 22.736L77.7823 22.4645L75.8199 22.736H76.8199ZM77.0839 23.672L78.0454 23.9467L78.1234 23.6738L78.0463 23.4005L77.0839 23.672ZM75.6439 25.568L76.1856 26.4086L76.1901 26.4056L75.6439 25.568ZM75.5959 23.168L75.0412 22.3359L75.5959 23.168ZM76.5079 22.04L77.4193 22.4516L77.424 22.4408L76.5079 22.04ZM76.1239 17.528L75.3646 18.1788L75.3693 18.1842L75.374 18.1896L76.1239 17.528ZM72.8599 17.048L72.3454 16.1905L72.3376 16.1952L72.3299 16.2L72.8599 17.048ZM71.9479 18.176L71.0317 17.7752L71.0286 17.7822L71.0257 17.7893L71.9479 18.176ZM72.3559 22.712L71.5876 23.3522L71.5966 23.3628L72.3559 22.712ZM73.1479 25.264C72.2928 25.264 71.5782 25.0594 70.9705 24.6749L69.9012 26.3651C70.8615 26.9726 71.9549 27.264 73.1479 27.264V25.264ZM70.9784 24.68C70.3872 24.2981 69.9047 23.7402 69.5425 22.962L67.7293 23.806C68.231 24.8838 68.9486 25.7499 69.8933 26.36L70.9784 24.68ZM69.5425 22.962C69.1847 22.1934 68.9879 21.2476 68.9879 20.096H66.9879C66.9879 21.4724 67.2231 22.7186 67.7293 23.806L69.5425 22.962ZM68.9879 20.096C68.9879 18.9437 69.1849 18.0089 69.5396 17.2601L67.7321 16.4039C67.2228 17.4791 66.9879 18.7203 66.9879 20.096H68.9879ZM69.5396 17.2601C69.9005 16.4983 70.3828 15.9447 70.9784 15.56L69.8933 13.88C68.953 14.4873 68.2353 15.3417 67.7321 16.4039L69.5396 17.2601ZM70.9705 15.5651C71.5782 15.1806 72.2928 14.976 73.1479 14.976V12.976C71.9549 12.976 70.8615 13.2674 69.9012 13.8749L70.9705 15.5651ZM73.1479 14.976C73.9077 14.976 74.5331 15.157 75.059 15.4917L76.1328 13.8043C75.2507 13.243 74.244 12.976 73.1479 12.976V14.976ZM75.0676 15.4971C75.6178 15.8394 75.9459 16.2518 76.1177 16.735L78.0021 16.065C77.6619 15.1082 77.014 14.3526 76.1242 13.7989L75.0676 15.4971ZM77.0599 15.4H76.7959V17.4H77.0599V15.4ZM77.7959 16.4V10.712H75.7959V16.4H77.7959ZM77.7959 10.712C77.7959 10.2581 77.9087 10.1014 77.959 10.0511L76.5448 8.63689C75.9871 9.19457 75.7959 9.94985 75.7959 10.712H77.7959ZM77.9769 10.0327C78.0342 9.97239 78.1808 9.864 78.5959 9.864V7.864C77.827 7.864 77.0775 8.0756 76.5269 8.65525L77.9769 10.0327ZM78.5959 9.864C78.9826 9.864 79.1479 9.96628 79.2328 10.0511L80.647 8.63689C80.0918 8.08172 79.3611 7.864 78.5959 7.864V9.864ZM79.2511 10.069C79.3065 10.1216 79.4199 10.2716 79.4199 10.712H81.4199C81.4199 9.93639 81.2132 9.17437 80.6286 8.619L79.2511 10.069ZM79.4199 10.712V24.368H81.4199V10.712H79.4199ZM79.4199 24.368C79.4199 24.7798 79.3126 24.949 79.2328 25.0289L80.647 26.4431C81.2071 25.883 81.4199 25.1402 81.4199 24.368H79.4199ZM79.2149 25.0473C79.1526 25.1128 79.0095 25.216 78.6199 25.216V27.216C79.3823 27.216 80.1191 26.9992 80.6649 26.4247L79.2149 25.0473ZM78.6199 25.216C78.2331 25.216 78.0678 25.1137 77.983 25.0289L76.5688 26.4431C77.1239 26.9983 77.8546 27.216 78.6199 27.216V25.216ZM78.0009 25.0473C77.9267 24.9692 77.8199 24.7931 77.8199 24.368H75.8199C75.8199 25.1269 76.0171 25.8628 76.5509 26.4247L78.0009 25.0473ZM77.8199 24.368V22.736H75.8199V24.368H77.8199ZM75.8574 23.0075L76.1214 23.9435L78.0463 23.4005L77.7823 22.4645L75.8574 23.0075ZM76.1224 23.3973C75.9698 23.931 75.6489 24.3709 75.0976 24.7304L76.1901 26.4056C77.1109 25.8051 77.7499 24.981 78.0454 23.9467L76.1224 23.3973ZM75.1022 24.7274C74.56 25.0769 73.9201 25.264 73.1479 25.264V27.264C74.2637 27.264 75.2878 26.9871 76.1856 26.4086L75.1022 24.7274ZM74.2279 24.552C74.924 24.552 75.5795 24.3808 76.1506 24L75.0412 22.3359C74.8442 22.4672 74.5877 22.552 74.2279 22.552V24.552ZM76.1506 24C76.7166 23.6227 77.1321 23.0874 77.4192 22.4516L75.5965 21.6284C75.4356 21.9846 75.2431 22.2013 75.0412 22.3359L76.1506 24ZM77.424 22.4408C77.7209 21.7624 77.8439 20.9662 77.8439 20.096H75.8439C75.8439 20.7938 75.7429 21.2936 75.5917 21.6392L77.424 22.4408ZM77.8439 20.096C77.8439 18.8244 77.5882 17.6762 76.8737 16.8664L75.374 18.1896C75.6195 18.4678 75.8439 19.0315 75.8439 20.096H77.8439ZM76.8831 16.8772C76.1999 16.0802 75.2829 15.688 74.2279 15.688V17.688C74.7409 17.688 75.0878 17.8558 75.3646 18.1788L76.8831 16.8772ZM74.2279 15.688C73.5529 15.688 72.9157 15.8483 72.3454 16.1905L73.3744 17.9055C73.604 17.7677 73.8789 17.688 74.2279 17.688V15.688ZM72.3299 16.2C71.7387 16.5695 71.3174 17.1222 71.0317 17.7752L72.864 18.5768C73.0264 18.2058 73.213 18.0065 73.3899 17.896L72.3299 16.2ZM71.0257 17.7893C70.7485 18.4503 70.6359 19.2349 70.6359 20.096H72.6359C72.6359 19.3891 72.7313 18.8937 72.8701 18.5627L71.0257 17.7893ZM70.6359 20.096C70.6359 21.3742 70.8942 22.5201 71.5877 23.3522L73.1241 22.0718C72.8575 21.7519 72.6359 21.1538 72.6359 20.096H70.6359ZM71.5966 23.3628C72.2754 24.1547 73.1817 24.552 74.2279 24.552V22.552C73.738 22.552 73.3964 22.3893 73.1151 22.0612L71.5966 23.3628ZM86.3803 30.368L86.1997 31.3516L86.2032 31.3522L86.3803 30.368ZM84.2923 29.72L84.7204 28.8163L84.7058 28.8094L84.691 28.8029L84.2923 29.72ZM83.5003 29.096L82.6287 29.5863L82.6401 29.6064L82.6523 29.626L83.5003 29.096ZM83.3083 28.28L82.3144 28.1696L82.3114 28.197L82.3099 28.2245L83.3083 28.28ZM83.5963 27.512L82.81 26.8942L82.7959 26.9122L82.7826 26.9308L83.5963 27.512ZM84.2443 27.032L83.946 26.0775L83.9194 26.0859L83.8932 26.0957L84.2443 27.032ZM85.0603 27.104L85.4741 26.1936L85.4664 26.1902L85.0603 27.104ZM87.0043 27.728L86.8442 28.7151L86.8484 28.7158L87.0043 27.728ZM90.8683 27.176L90.1968 26.435L90.8683 27.176ZM91.6363 23.216V22.216H90.6363V23.216H91.6363ZM91.8523 23.216L92.803 23.526L93.2302 22.216H91.8523V23.216ZM90.3643 25.016L89.8392 24.165L90.3643 25.016ZM85.1083 24.992L84.5737 25.8371L84.5799 25.841L84.5862 25.8449L85.1083 24.992ZM83.2843 22.928L82.3835 23.3623L82.3866 23.3687L83.2843 22.928ZM82.9963 17.432L82.0541 17.097L82.0508 17.1063L82.0476 17.1158L82.9963 17.432ZM84.0523 15.584L83.3113 14.9125L83.3055 14.9189L83.2997 14.9255L84.0523 15.584ZM85.7083 14.408L86.0995 15.3284L86.1103 15.3236L85.7083 14.408ZM90.3643 14.672L89.8226 15.5126L89.8334 15.5195L89.8444 15.5262L90.3643 14.672ZM91.8283 16.448L92.7828 16.7463L92.878 16.4415L92.779 16.138L91.8283 16.448ZM91.5883 17.216H90.5883L92.5428 17.5143L91.5883 17.216ZM94.7083 14.504L93.9833 15.1927L93.9921 15.202L94.0012 15.2111L94.7083 14.504ZM93.5323 29.072L92.8586 28.333L92.8529 28.3382L92.8473 28.3435L93.5323 29.072ZM90.3403 22.616L89.8013 21.7737L89.7934 21.7788L89.7856 21.7839L90.3403 22.616ZM91.2763 21.536L92.1769 21.9708L92.1825 21.9589L91.2763 21.536ZM90.8683 17.528L90.1091 18.1788L90.119 18.1904L90.1294 18.2018L90.8683 17.528ZM87.5323 17.072L88.0468 17.9295L88.0592 17.9221L88.0714 17.9143L87.5323 17.072ZM86.5963 18.152L85.6901 17.7291L85.6869 17.736L85.6838 17.7429L86.5963 18.152ZM87.0043 22.16L87.7636 21.5092L87.0043 22.16ZM88.8763 29.584C88.068 29.584 87.2955 29.5167 86.5575 29.3838L86.2032 31.3522C87.0652 31.5073 87.9566 31.584 88.8763 31.584V29.584ZM86.561 29.3845C85.8473 29.2534 85.2368 29.0609 84.7204 28.8163L83.8642 30.6237C84.5638 30.9551 85.3454 31.1946 86.1997 31.3515L86.561 29.3845ZM84.691 28.8029C84.4484 28.6974 84.371 28.6023 84.3483 28.566L82.6523 29.626C82.9496 30.1017 83.4002 30.4226 83.8936 30.6371L84.691 28.8029ZM84.3719 28.6057C84.3195 28.5126 84.3015 28.4295 84.3068 28.3355L82.3099 28.2245C82.2831 28.7065 82.3931 29.1674 82.6287 29.5863L84.3719 28.6057ZM84.3022 28.3904C84.3164 28.2629 84.3546 28.1709 84.41 28.0932L82.7826 26.9308C82.518 27.3011 82.3643 27.7211 82.3144 28.1696L84.3022 28.3904ZM84.3826 28.1298C84.4504 28.0435 84.5183 27.9973 84.5954 27.9683L83.8932 26.0957C83.4583 26.2587 83.0942 26.5325 82.81 26.8942L84.3826 28.1298ZM84.5426 27.9865C84.5435 27.9862 84.5442 27.9854 84.5524 27.9861C84.563 27.9871 84.5957 27.9918 84.6542 28.0178L85.4664 26.1902C84.9975 25.9818 84.4736 25.9127 83.946 26.0775L84.5426 27.9865ZM84.6465 28.0144C85.4093 28.3611 86.1436 28.6015 86.8442 28.7151L87.1644 26.7409C86.681 26.6625 86.1193 26.4869 85.4741 26.1936L84.6465 28.0144ZM86.8484 28.7158C87.4882 28.8168 88.0633 28.872 88.5643 28.872V26.872C88.2013 26.872 87.7364 26.8312 87.1603 26.7402L86.8484 28.7158ZM88.5643 28.872C89.7195 28.872 90.7725 28.6124 91.5398 27.917L90.1968 26.435C89.9402 26.6676 89.4572 26.872 88.5643 26.872V28.872ZM91.5398 27.917C92.3325 27.1986 92.6363 26.1687 92.6363 25.04H90.6363C90.6363 25.8313 90.4281 26.2254 90.1968 26.435L91.5398 27.917ZM92.6363 25.04V23.216H90.6363V25.04H92.6363ZM91.6363 24.216H91.8523V22.216H91.6363V24.216ZM90.9016 22.906C90.7453 23.3854 90.42 23.8066 89.8392 24.165L90.8894 25.867C91.8126 25.2974 92.4794 24.5186 92.803 23.526L90.9016 22.906ZM89.8392 24.165C89.2503 24.5283 88.6011 24.712 87.8683 24.712V26.712C88.9595 26.712 89.9743 26.4317 90.8894 25.867L89.8392 24.165ZM87.8683 24.712C86.9686 24.712 86.2351 24.5093 85.6305 24.1391L84.5862 25.8449C85.5496 26.4347 86.656 26.712 87.8683 26.712V24.712ZM85.643 24.1469C85.024 23.7553 84.5374 23.2114 84.182 22.4873L82.3866 23.3687C82.8952 24.4046 83.6247 25.2367 84.5737 25.8371L85.643 24.1469ZM84.1851 22.4937C83.8288 21.7548 83.6363 20.8757 83.6363 19.832H81.6363C81.6363 21.1243 81.8758 22.3092 82.3835 23.3623L84.1851 22.4937ZM83.6363 19.832C83.6363 19.0427 83.7439 18.3515 83.945 17.7482L82.0476 17.1158C81.7687 17.9525 81.6363 18.8613 81.6363 19.832H83.6363ZM83.9385 17.767C84.1575 17.1513 84.4495 16.6486 84.8049 16.2425L83.2997 14.9255C82.7591 15.5434 82.3472 16.2727 82.0541 17.097L83.9385 17.767ZM84.7933 16.2555C85.1594 15.8515 85.5918 15.5441 86.0995 15.3283L85.3172 13.4877C84.5448 13.8159 83.8732 14.2925 83.3113 14.9125L84.7933 16.2555ZM86.1103 15.3236C86.6281 15.0963 87.2095 14.976 87.8683 14.976V12.976C86.9591 12.976 86.1006 13.1437 85.3063 13.4924L86.1103 15.3236ZM87.8683 14.976C88.6405 14.976 89.2804 15.1631 89.8226 15.5126L90.906 13.8314C90.0082 13.2529 88.9841 12.976 87.8683 12.976V14.976ZM89.8444 15.5262C90.4011 15.8651 90.7201 16.2751 90.8776 16.758L92.779 16.138C92.4565 15.1489 91.7995 14.3749 90.8843 13.8178L89.8444 15.5262ZM90.8738 16.1497L90.6338 16.9177L92.5428 17.5143L92.7828 16.7463L90.8738 16.1497ZM92.5883 17.216V15.848H90.5883V17.216H92.5883ZM92.5883 15.848C92.5883 15.4191 92.6966 15.266 92.7514 15.2111L91.3372 13.7969C90.7841 14.35 90.5883 15.0929 90.5883 15.848H92.5883ZM92.7514 15.2111C92.8363 15.1263 93.0016 15.024 93.3883 15.024V13.024C92.6231 13.024 91.8924 13.2417 91.3372 13.7969L92.7514 15.2111ZM93.3883 15.024C93.7779 15.024 93.921 15.1272 93.9833 15.1927L95.4333 13.8152C94.8876 13.2408 94.1507 13.024 93.3883 13.024V15.024ZM94.0012 15.2111C94.0561 15.266 94.1643 15.4191 94.1643 15.848H96.1643C96.1643 15.0929 95.9686 14.35 95.4154 13.7969L94.0012 15.2111ZM94.1643 15.848V24.632H96.1643V15.848H94.1643ZM94.1643 24.632C94.1643 26.4179 93.6753 27.5884 92.8586 28.333L94.2061 29.811C95.5653 28.5716 96.1643 26.7821 96.1643 24.632H94.1643ZM92.8473 28.3435C92.0216 29.1199 90.7517 29.584 88.8763 29.584V31.584C91.0649 31.584 92.899 31.0401 94.2173 29.8005L92.8473 28.3435ZM88.9483 24C89.6537 24 90.3191 23.832 90.895 23.448L89.7856 21.7839C89.5935 21.912 89.3309 22 88.9483 22V24ZM90.8794 23.4583C91.4484 23.0941 91.8795 22.5867 92.1769 21.9707L90.3758 21.1013C90.2251 21.4133 90.0322 21.6259 89.8013 21.7737L90.8794 23.4583ZM92.1825 21.9589C92.4812 21.3188 92.6123 20.6001 92.6123 19.832H90.6123C90.6123 20.3759 90.5194 20.7932 90.3701 21.1131L92.1825 21.9589ZM92.6123 19.832C92.6123 18.6787 92.3223 17.6385 91.6073 16.8542L90.1294 18.2018C90.4063 18.5055 90.6123 19.0013 90.6123 19.832H92.6123ZM91.6276 16.8772C90.9401 16.0752 90.0123 15.688 88.9483 15.688V17.688C89.4843 17.688 89.8365 17.8608 90.1091 18.1788L91.6276 16.8772ZM88.9483 15.688C88.2417 15.688 87.5766 15.8564 86.9933 16.2297L88.0714 17.9143C88.288 17.7756 88.5669 17.688 88.9483 17.688V15.688ZM87.0178 16.2145C86.4244 16.5706 85.9866 17.0937 85.6901 17.7291L87.5025 18.5749C87.654 18.2503 87.8402 18.0534 88.0468 17.9295L87.0178 16.2145ZM85.6838 17.7429C85.404 18.3672 85.2843 19.0743 85.2843 19.832H87.2843C87.2843 19.2777 87.3726 18.8648 87.5088 18.5611L85.6838 17.7429ZM85.2843 19.832C85.2843 20.9798 85.5631 22.0152 86.2451 22.8108L87.7636 21.5092C87.4855 21.1848 87.2843 20.6682 87.2843 19.832H85.2843ZM86.2451 22.8108C86.9366 23.6177 87.8753 24 88.9483 24V22C88.3893 22 88.032 21.8223 87.7636 21.5092L86.2451 22.8108ZM100.498 25.52L100.039 26.4086L100.048 26.413L100.056 26.4173L100.498 25.52ZM98.1939 23.384L97.3248 23.8785L97.3299 23.8875L97.3351 23.8963L98.1939 23.384ZM98.1699 16.928L99.0419 17.4175L99.0455 17.4111L98.1699 16.928ZM100.306 14.768L100.795 15.64L100.8 15.6372L100.306 14.768ZM105.754 14.408L105.368 15.3304L105.377 15.3343L105.386 15.338L105.754 14.408ZM107.53 15.608L106.801 16.2927L106.806 16.2983L106.812 16.3038L107.53 15.608ZM108.658 17.504L107.711 17.8263L107.713 17.8325L108.658 17.504ZM108.754 20.672L109.354 21.472L109.374 21.4566L109.394 21.4402L108.754 20.672ZM100.378 20.888H99.3779V21.888H100.378V20.888ZM100.378 19.016V18.016H99.3779V19.016H100.378ZM106.426 19.016L107.084 19.7686L109.087 18.016H106.426V19.016ZM106.042 19.352H105.042V21.5558L106.7 20.1046L106.042 19.352ZM105.754 17.72L104.835 18.114L104.84 18.1261L105.754 17.72ZM104.914 16.712L104.377 17.5557L104.385 17.561L104.394 17.5662L104.914 16.712ZM102.082 16.784L102.629 17.621L102.082 16.784ZM101.626 22.688L100.909 23.3851L100.919 23.3951L101.626 22.688ZM105.49 23.408L105.68 24.3898L105.49 23.408ZM106.882 22.952L106.45 22.0499L106.448 22.051L106.882 22.952ZM107.866 22.784L107.649 23.7602L107.675 23.766L107.702 23.7704L107.866 22.784ZM108.802 23.888L107.804 23.9467L107.805 23.9759L107.809 24.0048L108.802 23.888ZM108.634 24.704L109.506 25.1943L109.512 25.1832L109.518 25.1719L108.634 24.704ZM107.914 25.352L107.45 24.4662L107.438 24.4725L107.426 24.4791L107.914 25.352ZM106.066 26.024L105.861 25.0452L105.848 25.048L105.834 25.0512L106.066 26.024ZM104.098 25.264C102.823 25.264 101.781 25.0369 100.939 24.6227L100.056 26.4173C101.231 26.9951 102.589 27.264 104.098 27.264V25.264ZM100.957 24.6314C100.122 24.2004 99.4961 23.615 99.0528 22.8717L97.3351 23.8963C97.9798 24.977 98.8903 25.8156 100.039 26.4086L100.957 24.6314ZM99.0631 22.8895C98.6343 22.1359 98.4019 21.2241 98.4019 20.12H96.4019C96.4019 21.5119 96.6975 22.7761 97.3248 23.8785L99.0631 22.8895ZM98.4019 20.12C98.4019 19.0473 98.6266 18.1573 99.0419 17.4175L97.298 16.4385C96.6893 17.5227 96.4019 18.7607 96.4019 20.12H98.4019ZM99.0455 17.4111C99.4688 16.6438 100.048 16.0595 100.795 15.64L99.8164 13.896C98.7397 14.5005 97.8951 15.3562 97.2944 16.4449L99.0455 17.4111ZM100.8 15.6372C101.564 15.2028 102.439 14.976 103.45 14.976V12.976C102.125 12.976 100.904 13.2772 99.8114 13.8988L100.8 15.6372ZM103.45 14.976C104.183 14.976 104.818 15.1002 105.368 15.3304L106.14 13.4856C105.314 13.1398 104.412 12.976 103.45 12.976V14.976ZM105.386 15.338C105.94 15.557 106.408 15.8744 106.801 16.2927L108.259 14.9233C107.66 14.2856 106.944 13.803 106.122 13.478L105.386 15.338ZM106.812 16.3038C107.194 16.6981 107.497 17.198 107.711 17.8263L109.605 17.1817C109.306 16.306 108.858 15.5419 108.248 14.9122L106.812 16.3038ZM107.713 17.8325C107.927 18.4466 108.042 19.1572 108.042 19.976H110.042C110.042 18.9708 109.901 18.0334 109.602 17.1755L107.713 17.8325ZM108.042 19.976C108.042 20.0238 108.034 20.0235 108.046 19.9956C108.052 19.9817 108.061 19.9644 108.074 19.9464C108.087 19.9284 108.101 19.9141 108.114 19.9038L109.394 21.4402C109.863 21.0493 110.042 20.5063 110.042 19.976H108.042ZM108.154 19.872C108.182 19.8511 108.189 19.8556 108.151 19.8655C108.111 19.8758 108.036 19.888 107.914 19.888V21.888C108.39 21.888 108.918 21.7986 109.354 21.472L108.154 19.872ZM107.914 19.888H100.378V21.888H107.914V19.888ZM101.378 20.888V19.016H99.3779V20.888H101.378ZM100.378 20.016H106.426V18.016H100.378V20.016ZM105.767 18.2634L105.383 18.5994L106.7 20.1046L107.084 19.7686L105.767 18.2634ZM107.042 19.352C107.042 18.6068 106.934 17.9131 106.668 17.3139L104.84 18.1261C104.958 18.3909 105.042 18.7852 105.042 19.352H107.042ZM106.673 17.3261C106.41 16.713 106.002 16.2039 105.434 15.8578L104.394 17.5662C104.561 17.6681 104.714 17.831 104.835 18.1139L106.673 17.3261ZM105.451 15.8683C104.901 15.5183 104.262 15.376 103.594 15.376V17.376C103.982 17.376 104.223 17.4577 104.377 17.5557L105.451 15.8683ZM103.594 15.376C102.845 15.376 102.142 15.5497 101.535 15.947L102.629 17.621C102.854 17.4743 103.159 17.376 103.594 17.376V15.376ZM101.535 15.947C100.936 16.3383 100.498 16.8919 100.206 17.5592L102.038 18.3608C102.194 18.0041 102.396 17.7737 102.629 17.621L101.535 15.947ZM100.206 17.5592C99.913 18.2284 99.7859 18.9882 99.7859 19.808H101.786C101.786 19.1878 101.883 18.7156 102.038 18.3608L100.206 17.5592ZM99.7859 19.808V20H101.786V19.808H99.7859ZM99.7859 20C99.7859 21.3452 100.093 22.5458 100.909 23.3851L102.343 21.9909C102.039 21.6782 101.786 21.0868 101.786 20H99.7859ZM100.919 23.3951C101.744 24.22 102.886 24.552 104.17 24.552V22.552C103.214 22.552 102.66 22.308 102.333 21.9809L100.919 23.3951ZM104.17 24.552C104.634 24.552 105.14 24.4943 105.68 24.3898L105.3 22.4262C104.848 22.5137 104.474 22.552 104.17 22.552V24.552ZM105.68 24.3898C106.256 24.2783 106.802 24.1002 107.316 23.853L106.448 22.051C106.098 22.2198 105.716 22.3457 105.3 22.4262L105.68 24.3898ZM107.313 23.8541C107.432 23.7974 107.517 23.7731 107.572 23.7637C107.625 23.7548 107.647 23.7597 107.649 23.7602L108.083 21.8078C107.506 21.6797 106.944 21.8138 106.45 22.0499L107.313 23.8541ZM107.702 23.7704C107.744 23.7775 107.757 23.7861 107.754 23.7842C107.753 23.7836 107.75 23.7819 107.747 23.7796C107.745 23.7772 107.744 23.7761 107.745 23.7777L109.331 22.5583C108.998 22.1266 108.537 21.8821 108.03 21.7976L107.702 23.7704ZM107.745 23.7777C107.778 23.8205 107.799 23.8667 107.804 23.9467L109.8 23.8293C109.773 23.3653 109.618 22.9315 109.331 22.5583L107.745 23.7777ZM107.809 24.0048C107.814 24.0509 107.811 24.1204 107.75 24.2361L109.518 25.1719C109.744 24.7436 109.854 24.2691 109.795 23.7712L107.809 24.0048ZM107.762 24.2137C107.737 24.2585 107.664 24.354 107.45 24.4662L108.378 26.2378C108.836 25.998 109.243 25.6615 109.506 25.1943L107.762 24.2137ZM107.426 24.4791C106.981 24.7278 106.462 24.9193 105.861 25.0452L106.271 27.0028C107.045 26.8407 107.759 26.5842 108.402 26.2249L107.426 24.4791ZM105.834 25.0512C105.232 25.1945 104.654 25.264 104.098 25.264V27.264C104.822 27.264 105.556 27.1735 106.298 26.9968L105.834 25.0512ZM114.079 25.712L113.632 26.6065L113.64 26.6102L114.079 25.712ZM112.424 24.104L111.529 24.5512L111.533 24.5593L111.537 24.5673L112.424 24.104ZM111.896 16.928H112.896V15.928H111.896V16.928ZM109.831 16.568L109.124 17.2751L109.136 17.2865L109.148 17.2975L109.831 16.568ZM109.831 14.576L110.514 15.3071L110.515 15.3055L109.831 14.576ZM111.896 14.216V15.216H112.896V14.216H111.896ZM112.376 11.024L113.064 11.749L113.074 11.7402L113.083 11.7311L112.376 11.024ZM115.063 11.024L114.339 11.7127L114.347 11.722L114.356 11.7311L115.063 11.024ZM115.52 14.216H114.52V15.216H115.52V14.216ZM118.831 14.576L118.124 15.2831L118.137 15.2953L118.149 15.3071L118.831 14.576ZM115.52 16.928V15.928H114.52V16.928H115.52ZM115.976 22.808L115.234 23.4789L115.243 23.4884L115.251 23.4977L115.976 22.808ZM118.16 23.24L118.384 24.2144L118.16 23.24ZM118.735 23.144L118.664 22.1465L118.655 22.1472L118.645 22.1481L118.735 23.144ZM119.287 23.36L118.544 24.029L118.562 24.0485L118.58 24.0671L119.287 23.36ZM119.312 25.352L120.225 25.7581L119.312 25.352ZM118.64 25.976L118.999 26.9094L119.011 26.9045L118.64 25.976ZM117.775 26.168L117.646 25.1764L117.621 25.1796L117.597 25.1841L117.775 26.168ZM116.864 25.264C115.865 25.264 115.098 25.097 114.519 24.8138L113.64 26.6102C114.565 27.063 115.654 27.264 116.864 27.264V25.264ZM114.527 24.8176C113.972 24.54 113.577 24.1514 113.31 23.6407L111.537 24.5673C112.006 25.4646 112.715 26.148 113.632 26.6064L114.527 24.8176ZM113.318 23.6568C113.056 23.1325 112.896 22.4101 112.896 21.44H110.896C110.896 22.6139 111.087 23.6674 111.529 24.5512L113.318 23.6568ZM112.896 21.44V16.928H110.896V21.44H112.896ZM111.896 15.928H110.887V17.928H111.896V15.928ZM110.887 15.928C110.621 15.928 110.539 15.8605 110.515 15.8385L109.148 17.2975C109.636 17.7555 110.258 17.928 110.887 17.928V15.928ZM110.539 15.8609C110.527 15.8491 110.471 15.7984 110.471 15.584H108.471C108.471 16.2016 108.656 16.8069 109.124 17.2751L110.539 15.8609ZM110.471 15.584C110.471 15.4466 110.49 15.3688 110.503 15.3323C110.514 15.3014 110.521 15.3008 110.514 15.3071L109.149 13.8449C108.641 14.3193 108.471 14.9635 108.471 15.584H110.471ZM110.515 15.3055C110.539 15.2835 110.621 15.216 110.887 15.216V13.216C110.258 13.216 109.636 13.3885 109.148 13.8465L110.515 15.3055ZM110.887 15.216H111.896V13.216H110.887V15.216ZM112.896 14.216V12.392H110.896V14.216H112.896ZM112.896 12.392C112.896 11.9516 113.009 11.8016 113.064 11.749L111.687 10.299C111.102 10.8544 110.896 11.6164 110.896 12.392H112.896ZM113.083 11.7311C113.167 11.6463 113.333 11.544 113.719 11.544V9.544C112.954 9.544 112.224 9.76172 111.668 10.3169L113.083 11.7311ZM113.719 11.544C114.135 11.544 114.281 11.6524 114.339 11.7127L115.788 10.3353C115.238 9.7556 114.488 9.544 113.719 9.544V11.544ZM114.356 11.7311C114.407 11.7814 114.52 11.9381 114.52 12.392H116.52C116.52 11.6299 116.328 10.8746 115.771 10.3169L114.356 11.7311ZM114.52 12.392V14.216H116.52V12.392H114.52ZM115.52 15.216H117.799V13.216H115.52V15.216ZM117.799 15.216C117.936 15.216 118.019 15.2345 118.064 15.2502C118.105 15.2643 118.119 15.2773 118.124 15.2831L119.539 13.8689C119.057 13.3872 118.425 13.216 117.799 13.216V15.216ZM118.149 15.3071C118.143 15.3008 118.149 15.3014 118.16 15.3323C118.173 15.3688 118.191 15.4466 118.191 15.584H120.191C120.191 14.9635 120.022 14.3193 119.514 13.8449L118.149 15.3071ZM118.191 15.584C118.191 15.7984 118.136 15.8491 118.124 15.8609L119.539 17.2751C120.007 16.8069 120.191 16.2016 120.191 15.584H118.191ZM118.124 15.8609C118.119 15.8667 118.105 15.8797 118.064 15.8938C118.019 15.9095 117.936 15.928 117.799 15.928V17.928C118.425 17.928 119.057 17.7568 119.539 17.2751L118.124 15.8609ZM117.799 15.928H115.52V17.928H117.799V15.928ZM114.52 16.928V21.296H116.52V16.928H114.52ZM114.52 21.296C114.52 22.0988 114.699 22.8876 115.234 23.4789L116.717 22.1371C116.644 22.0564 116.52 21.8372 116.52 21.296H114.52ZM115.251 23.4977C115.835 24.1106 116.658 24.312 117.488 24.312V22.312C116.941 22.312 116.756 22.1774 116.7 22.1183L115.251 23.4977ZM117.488 24.312C117.794 24.312 118.094 24.2814 118.384 24.2144L117.935 22.2656C117.809 22.2946 117.661 22.312 117.488 22.312V24.312ZM118.384 24.2144C118.557 24.1746 118.703 24.151 118.826 24.1399L118.645 22.1481C118.416 22.169 118.178 22.2094 117.935 22.2656L118.384 24.2144ZM118.807 24.1415C118.791 24.1426 118.741 24.1424 118.677 24.1172C118.611 24.0916 118.567 24.0542 118.544 24.029L120.031 22.691C119.67 22.2905 119.18 22.1097 118.664 22.1465L118.807 24.1415ZM118.58 24.0671C118.513 23.9994 118.482 23.9395 118.473 23.9186C118.463 23.8973 118.466 23.8968 118.473 23.9284C118.487 23.9955 118.504 24.1267 118.504 24.344H120.504C120.504 24.0493 120.484 23.7605 120.426 23.4996C120.373 23.2579 120.263 22.9216 119.995 22.6529L118.58 24.0671ZM118.504 24.344C118.504 24.618 118.458 24.8105 118.398 24.9459L120.225 25.7581C120.421 25.3175 120.504 24.838 120.504 24.344H118.504ZM118.398 24.9459C118.386 24.9724 118.371 25.0064 118.268 25.0475L119.011 26.9045C119.548 26.6896 119.981 26.3076 120.225 25.7581L118.398 24.9459ZM118.281 25.0427C118.179 25.0816 117.98 25.1328 117.646 25.1764L117.905 27.1596C118.307 27.1072 118.684 27.0304 118.998 26.9093L118.281 25.0427ZM117.597 25.1841C117.282 25.2413 117.041 25.264 116.864 25.264V27.264C117.198 27.264 117.565 27.2227 117.954 27.1519L117.597 25.1841ZM121.599 25.496L122.306 24.7889L121.599 25.496ZM121.599 9.584L122.306 10.2911V10.2911L121.599 9.584ZM131.919 9.608L131.535 10.5316V10.5316L131.919 9.608ZM133.839 11.12L133.003 11.67L133.008 11.677L133.013 11.684L133.839 11.12ZM131.271 17.456H130.271V18.722L131.502 18.4288L131.271 17.456ZM131.271 17.072L131.446 16.0875L130.271 15.8782V17.072H131.271ZM133.983 18.464L133.235 19.1284L133.243 19.1371L133.251 19.1457L133.983 18.464ZM133.407 24.752L134.031 25.5329L134.039 25.527L133.407 24.752ZM124.647 23.24H123.647V24.24H124.647V23.24ZM130.719 22.688L131.353 23.4607L131.361 23.4541L131.369 23.4473L130.719 22.688ZM130.719 19.352L131.353 18.5793L130.719 19.352ZM124.647 18.8V17.8H123.647V18.8H124.647ZM124.647 16.04H123.647V17.04H124.647V16.04ZM130.263 15.512L130.88 16.2983L130.263 15.512ZM130.263 12.368L129.645 13.1543L130.263 12.368ZM124.647 11.84V10.84H123.647V11.84H124.647ZM123.039 25C122.594 25 122.401 24.8841 122.306 24.7889L120.892 26.2031C121.468 26.7799 122.236 27 123.039 27V25ZM122.306 24.7889C122.211 24.6937 122.095 24.5011 122.095 24.056H120.095C120.095 24.8589 120.315 25.6263 120.892 26.2031L122.306 24.7889ZM122.095 24.056V11.024H120.095V24.056H122.095ZM122.095 11.024C122.095 10.5789 122.211 10.3863 122.306 10.2911L120.892 8.87689C120.315 9.45371 120.095 10.2211 120.095 11.024H122.095ZM122.306 10.2911C122.401 10.1959 122.594 10.08 123.039 10.08V8.08C122.236 8.08 121.468 8.30008 120.892 8.87689L122.306 10.2911ZM123.039 10.08H128.847V8.08H123.039V10.08ZM128.847 10.08C129.953 10.08 130.84 10.2429 131.535 10.5316L132.302 8.68441C131.301 8.26907 130.14 8.08 128.847 8.08V10.08ZM131.535 10.5316C132.231 10.8203 132.699 11.2076 133.003 11.67L134.674 10.57C134.114 9.72041 133.303 9.09975 132.302 8.68441L131.535 10.5316ZM133.013 11.684C133.331 12.1501 133.511 12.7305 133.511 13.472H135.511C135.511 12.3895 135.242 11.4019 134.664 10.556L133.013 11.684ZM133.511 13.472C133.511 14.2757 133.286 14.901 132.873 15.4068L134.421 16.6732C135.159 15.771 135.511 14.6843 135.511 13.472H133.511ZM132.873 15.4068C132.454 15.9181 131.865 16.2865 131.039 16.4832L131.502 18.4288C132.692 18.1455 133.687 17.5699 134.421 16.6732L132.873 15.4068ZM132.271 17.456V17.072H130.271V17.456H132.271ZM131.095 18.0565C132.095 18.2345 132.777 18.6123 133.235 19.1284L134.73 17.7996C133.909 16.8757 132.783 16.3255 131.446 16.0875L131.095 18.0565ZM133.251 19.1457C133.704 19.6319 133.967 20.2924 133.967 21.224H135.967C135.967 19.8836 135.573 18.7041 134.714 17.7823L133.251 19.1457ZM133.967 21.224C133.967 22.4685 133.552 23.3434 132.775 23.977L134.039 25.527C135.342 24.4646 135.967 22.9875 135.967 21.224H133.967ZM132.782 23.9711C131.975 24.6168 130.791 25 129.111 25V27C131.079 27 132.758 26.5512 134.031 25.5329L132.782 23.9711ZM129.111 25H123.039V27H129.111V25ZM124.647 24.24H128.607V22.24H124.647V24.24ZM128.607 24.24C129.658 24.24 130.642 24.0451 131.353 23.4607L130.084 21.9153C129.899 22.0669 129.475 22.24 128.607 22.24V24.24ZM131.369 23.4473C132.092 22.8276 132.391 21.9576 132.391 21.008H130.391C130.391 21.5304 130.241 21.7804 130.068 21.9287L131.369 23.4473ZM132.391 21.008C132.391 20.0603 132.093 19.1866 131.353 18.5793L130.084 20.1247C130.241 20.2534 130.391 20.4837 130.391 21.008H132.391ZM131.353 18.5793C130.642 17.9949 129.658 17.8 128.607 17.8V19.8C129.475 19.8 129.899 19.9731 130.084 20.1247L131.353 18.5793ZM128.607 17.8H124.647V19.8H128.607V17.8ZM123.647 18.8V23.24H125.647V18.8H123.647ZM124.647 17.04H128.199V15.04H124.647V17.04ZM128.199 17.04C129.22 17.04 130.176 16.852 130.88 16.2983L129.645 14.7257C129.454 14.876 129.033 15.04 128.199 15.04V17.04ZM130.88 16.2983C131.626 15.7123 131.935 14.859 131.935 13.928H129.935C129.935 14.405 129.795 14.6077 129.645 14.7257L130.88 16.2983ZM131.935 13.928C131.935 13.004 131.62 12.1631 130.88 11.5817L129.645 13.1543C129.801 13.2769 129.935 13.476 129.935 13.928H131.935ZM130.88 11.5817C130.176 11.028 129.22 10.84 128.199 10.84V12.84C129.033 12.84 129.454 13.004 129.645 13.1543L130.88 11.5817ZM128.199 10.84H124.647V12.84H128.199V10.84ZM123.647 11.84V16.04H125.647V11.84H123.647ZM139.126 25.76L139.565 24.8614L139.126 25.76ZM137.518 24.392L136.686 24.9467L137.518 24.392ZM137.614 20.408L138.356 21.0783L138.362 21.0724L138.367 21.0665L137.614 20.408ZM139.798 19.328L140 20.3074L140.008 20.3058L140.015 20.3042L139.798 19.328ZM145.078 18.992H146.078V17.992H145.078V18.992ZM145.078 20.864V21.864H146.078V20.864H145.078ZM141.838 21.008L141.997 21.9952L142.01 21.9932L142.022 21.9909L141.838 21.008ZM140.758 21.44L140.078 20.7072L140.064 20.7198L140.051 20.7329L140.758 21.44ZM140.902 23.408L140.214 24.134L140.224 24.1427L140.233 24.1513L140.902 23.408ZM143.494 23.528L144.003 24.389L144.014 24.3822L143.494 23.528ZM144.358 22.64L145.229 23.1321L145.233 23.1242L145.237 23.1163L144.358 22.64ZM144.19 17.096L143.501 17.821L143.511 17.8303L143.521 17.8393L144.19 17.096ZM141.142 16.808L141.332 17.7898L141.344 17.7875L141.356 17.7849L141.142 16.808ZM139.486 17.312L139.119 16.3818L139.095 16.3911L139.072 16.4016L139.486 17.312ZM138.55 17.432L138.217 18.375L138.242 18.3839L138.268 18.3914L138.55 17.432ZM137.926 16.952L137.069 17.4665L137.077 17.4798L137.085 17.4928L137.926 16.952ZM137.95 15.368L138.798 15.898L138.805 15.8866L138.812 15.875L137.95 15.368ZM138.742 14.768L139.071 15.7125L139.094 15.7044L139.117 15.6951L138.742 14.768ZM140.854 14.144L140.69 13.1576L140.686 13.1583L140.854 14.144ZM145.726 14.528L145.301 15.4332L145.312 15.4384L145.323 15.4433L145.726 14.528ZM147.526 16.184L146.643 16.6536L146.647 16.6615L147.526 16.184ZM147.694 25.736L146.951 25.067L147.694 25.736ZM145.174 25.736L144.431 26.405L144.44 26.415L144.449 26.4247L145.174 25.736ZM144.742 23.48L145.393 22.7207L143.742 21.3058V23.48H144.742ZM144.91 23.624L145.895 23.7978L145.994 23.236L145.561 22.8647L144.91 23.624ZM144.286 25.04L143.505 24.4153L143.502 24.4193L144.286 25.04ZM143.11 25.952L143.508 26.8696L143.52 26.864L143.533 26.8582L143.11 25.952ZM141.454 25.264C140.723 25.264 140.1 25.1226 139.565 24.8614L138.687 26.6586C139.529 27.0694 140.458 27.264 141.454 27.264V25.264ZM139.565 24.8614C139.019 24.5947 138.626 24.2506 138.35 23.8373L136.686 24.9467C137.179 25.6854 137.857 26.2533 138.687 26.6586L139.565 24.8614ZM138.35 23.8373C138.08 23.4324 137.942 22.9789 137.942 22.448H135.942C135.942 23.3571 136.188 24.1996 136.686 24.9467L138.35 23.8373ZM137.942 22.448C137.942 21.7571 138.118 21.3418 138.356 21.0783L136.872 19.7377C136.214 20.4662 135.942 21.4109 135.942 22.448H137.942ZM138.367 21.0665C138.614 20.7837 139.102 20.4927 140 20.3074L139.596 18.3486C138.478 18.5793 137.51 19.0083 136.862 19.7495L138.367 21.0665ZM140.015 20.3042C140.922 20.1026 142.177 19.992 143.806 19.992V17.992C142.108 17.992 140.69 18.1054 139.581 18.3518L140.015 20.3042ZM143.806 19.992H145.078V17.992H143.806V19.992ZM144.078 18.992V20.864H146.078V18.992H144.078ZM145.078 19.864H143.83V21.864H145.078V19.864ZM143.83 19.864C142.983 19.864 142.251 19.9132 141.654 20.0251L142.022 21.9909C142.45 21.9108 143.045 21.864 143.83 21.864V19.864ZM141.679 20.0208C141.101 20.1139 140.512 20.3035 140.078 20.7072L141.439 22.1728C141.452 22.1605 141.583 22.0621 141.997 21.9952L141.679 20.0208ZM140.051 20.7329C139.611 21.1729 139.446 21.7411 139.446 22.304H141.446C141.446 22.2131 141.459 22.1672 141.465 22.1516C141.469 22.14 141.469 22.143 141.465 22.1471L140.051 20.7329ZM139.446 22.304C139.446 23.0052 139.696 23.6429 140.214 24.134L141.59 22.682C141.5 22.5971 141.446 22.4988 141.446 22.304H139.446ZM140.233 24.1513C140.796 24.6578 141.524 24.84 142.27 24.84V22.84C141.832 22.84 141.648 22.7342 141.571 22.6647L140.233 24.1513ZM142.27 24.84C142.888 24.84 143.477 24.6997 144.003 24.3889L142.985 22.6671C142.807 22.7723 142.58 22.84 142.27 22.84V24.84ZM144.014 24.3822C144.525 24.0712 144.935 23.6517 145.229 23.1321L143.488 22.1479C143.365 22.3643 143.199 22.5368 142.974 22.6738L144.014 24.3822ZM145.237 23.1163C145.532 22.5719 145.67 21.9735 145.67 21.344H143.67C143.67 21.6745 143.6 21.9401 143.479 22.1637L145.237 23.1163ZM145.67 21.344V18.584H143.67V21.344H145.67ZM145.67 18.584C145.67 17.771 145.492 16.922 144.859 16.3527L143.521 17.8393C143.529 17.846 143.67 17.989 143.67 18.584H145.67ZM144.879 16.371C144.276 15.7987 143.408 15.64 142.558 15.64V17.64C143.244 17.64 143.464 17.7853 143.501 17.821L144.879 16.371ZM142.558 15.64C142.041 15.64 141.496 15.7069 140.928 15.8311L141.356 17.7849C141.812 17.6851 142.211 17.64 142.558 17.64V15.64ZM140.952 15.8262C140.381 15.9368 139.769 16.1254 139.119 16.3818L139.853 18.2422C140.42 18.0186 140.911 17.8712 141.332 17.7898L140.952 15.8262ZM139.072 16.4016C138.859 16.4985 138.802 16.4637 138.832 16.4726L138.268 18.3914C138.842 18.5603 139.409 18.4455 139.9 18.2224L139.072 16.4016ZM138.883 16.489C138.802 16.4604 138.781 16.4325 138.767 16.4112L137.085 17.4928C137.359 17.9195 137.754 18.2116 138.217 18.375L138.883 16.489ZM138.784 16.4375C138.73 16.3482 138.71 16.2693 138.71 16.184H136.71C136.71 16.6427 136.834 17.0758 137.069 17.4665L138.784 16.4375ZM138.71 16.184C138.71 16.0927 138.732 16.0031 138.798 15.898L137.102 14.838C136.848 15.2449 136.71 15.6993 136.71 16.184H138.71ZM138.812 15.875C138.825 15.8522 138.872 15.7815 139.071 15.7125L138.414 13.8235C137.876 14.0105 137.395 14.3398 137.088 14.861L138.812 15.875ZM139.117 15.6951C139.816 15.4124 140.451 15.2274 141.022 15.1297L140.686 13.1583C139.946 13.2846 139.172 13.5156 138.367 13.8409L139.117 15.6951ZM141.019 15.1304C141.647 15.0256 142.207 14.976 142.702 14.976V12.976C142.077 12.976 141.405 13.0384 140.69 13.1576L141.019 15.1304ZM142.702 14.976C143.845 14.976 144.694 15.1482 145.301 15.4332L146.151 13.6228C145.19 13.1718 144.023 12.976 142.702 12.976V14.976ZM145.323 15.4433C145.924 15.7074 146.352 16.1054 146.643 16.6536L148.409 15.7144C147.901 14.7586 147.129 14.0526 146.129 13.6127L145.323 15.4433ZM146.647 16.6615C146.943 17.2046 147.126 17.9765 147.126 19.04H149.126C149.126 17.7675 148.91 16.6354 148.405 15.7065L146.647 16.6615ZM147.126 19.04V24.368H149.126V19.04H147.126ZM147.126 24.368C147.126 24.8062 147.02 24.9898 146.951 25.067L148.437 26.405C148.944 25.8422 149.126 25.1138 149.126 24.368H147.126ZM146.951 25.067C146.9 25.1234 146.787 25.216 146.446 25.216V27.216C147.194 27.216 147.912 26.9886 148.437 26.405L146.951 25.067ZM146.446 25.216C146.108 25.216 145.972 25.124 145.899 25.0473L144.449 26.4247C144.984 26.988 145.696 27.216 146.446 27.216V25.216ZM145.917 25.067C145.848 24.9898 145.742 24.8062 145.742 24.368H143.742C143.742 25.1138 143.924 25.8422 144.431 26.405L145.917 25.067ZM145.742 24.368V23.48H143.742V24.368H145.742ZM144.091 24.2393L144.259 24.3833L145.561 22.8647L145.393 22.7207L144.091 24.2393ZM143.925 23.4502C143.856 23.8425 143.712 24.1563 143.505 24.4153L145.067 25.6647C145.5 25.1237 145.772 24.4935 145.895 23.7978L143.925 23.4502ZM143.502 24.4193C143.302 24.6716 143.038 24.8821 142.687 25.0458L143.533 26.8582C144.142 26.5739 144.662 26.1764 145.07 25.6607L143.502 24.4193ZM142.713 25.0344C142.38 25.1786 141.967 25.264 141.454 25.264V27.264C142.189 27.264 142.88 27.1414 143.508 26.8696L142.713 25.0344ZM150.95 25.736L150.325 26.5169L150.341 26.53L150.358 26.5424L150.95 25.736ZM150.469 25.016L149.506 25.2836L150.469 25.016ZM150.469 24.08L149.508 23.8053L149.502 23.8267L149.497 23.8484L150.469 24.08ZM151.021 23.144L151.749 23.8306L151.77 23.808L151.79 23.7842L151.021 23.144ZM156.901 16.088H157.901V13.3259L156.133 15.4478L156.901 16.088ZM156.901 16.928V17.928H157.901V16.928H156.901ZM150.686 16.568L149.978 17.2751V17.2751L150.686 16.568ZM150.686 14.576L151.368 15.3071L151.38 15.2953L151.393 15.2831L150.686 14.576ZM159.661 14.504L160.262 13.704H160.261L159.661 14.504ZM160.165 15.224L159.202 15.4916L159.211 15.5246L159.223 15.5568L160.165 15.224ZM160.189 16.136L159.217 15.9044L159.212 15.9221L159.209 15.9399L160.189 16.136ZM159.686 17.048L158.958 16.3614L158.938 16.3832L158.919 16.4063L159.686 17.048ZM153.661 24.248H152.661V27.0016L154.428 24.8897L153.661 24.248ZM153.661 23.312V22.312H152.661V23.312H153.661ZM160.238 25.664L160.92 26.3951L160.932 26.3833L160.945 26.3711L160.238 25.664ZM151.838 25C151.658 25 151.58 24.958 151.541 24.9296L150.358 26.5424C150.799 26.866 151.313 27 151.838 27V25ZM151.574 24.9551C151.493 24.8904 151.455 24.8279 151.433 24.7484L149.506 25.2836C149.644 25.7801 149.926 26.1976 150.325 26.5169L151.574 24.9551ZM151.433 24.7484C151.405 24.6471 151.395 24.5089 151.442 24.3116L149.497 23.8484C149.384 24.3231 149.374 24.8089 149.506 25.2836L151.433 24.7484ZM151.431 24.3547C151.477 24.1924 151.572 24.0178 151.749 23.8306L150.294 22.4574C149.927 22.8462 149.654 23.2956 149.508 23.8053L151.431 24.3547ZM151.79 23.7842L157.67 16.7282L156.133 15.4478L150.253 22.5038L151.79 23.7842ZM155.901 16.088V16.928H157.901V16.088H155.901ZM156.901 15.928H151.693V17.928H156.901V15.928ZM151.693 15.928C151.451 15.928 151.397 15.8657 151.393 15.8609L149.978 17.2751C150.454 17.7503 151.072 17.928 151.693 17.928V15.928ZM151.393 15.8609C151.381 15.8491 151.326 15.7984 151.326 15.584H149.326C149.326 16.2016 149.51 16.8069 149.978 17.2751L151.393 15.8609ZM151.326 15.584C151.326 15.4466 151.344 15.3688 151.357 15.3323C151.368 15.3014 151.374 15.3008 151.368 15.3071L150.003 13.8449C149.495 14.3193 149.326 14.9635 149.326 15.584H151.326ZM151.393 15.2831C151.397 15.2783 151.451 15.216 151.693 15.216V13.216C151.072 13.216 150.454 13.3937 149.978 13.8689L151.393 15.2831ZM151.693 15.216H158.63V13.216H151.693V15.216ZM158.63 15.216C158.92 15.216 159.03 15.2805 159.062 15.304L160.261 13.704C159.781 13.3435 159.203 13.216 158.63 13.216V15.216ZM159.062 15.304C159.154 15.3735 159.185 15.4318 159.202 15.4916L161.129 14.9564C160.986 14.4402 160.681 14.0185 160.262 13.704L159.062 15.304ZM159.223 15.5568C159.243 15.6143 159.261 15.7181 159.217 15.9044L161.162 16.3676C161.278 15.8819 161.28 15.3777 161.108 14.8912L159.223 15.5568ZM159.209 15.9399C159.189 16.0399 159.129 16.1805 158.958 16.3614L160.413 17.7346C160.786 17.3395 161.062 16.8721 161.17 16.3321L159.209 15.9399ZM158.919 16.4063L152.895 23.6063L154.428 24.8897L160.452 17.6897L158.919 16.4063ZM154.661 24.248V23.312H152.661V24.248H154.661ZM153.661 24.312H159.229V22.312H153.661V24.312ZM159.229 24.312C159.536 24.312 159.581 24.3871 159.555 24.3613C159.525 24.3323 159.598 24.3667 159.598 24.656H161.598C161.598 24.0493 161.442 23.4117 160.956 22.9347C160.474 22.4609 159.835 22.312 159.229 22.312V24.312ZM159.598 24.656C159.598 24.8987 159.535 24.9521 159.53 24.9569L160.945 26.3711C161.42 25.8959 161.598 25.2773 161.598 24.656H159.598ZM159.555 24.9329C159.553 24.9352 159.49 25 159.229 25V27C159.833 27 160.442 26.8408 160.92 26.3951L159.555 24.9329ZM159.229 25H151.838V27H159.229V25ZM163.9 25.76L164.338 24.8614L163.9 25.76ZM162.292 24.392L161.46 24.9467L162.292 24.392ZM162.388 20.408L163.13 21.0783L163.135 21.0724L163.14 21.0665L162.388 20.408ZM164.572 19.328L164.774 20.3074L164.781 20.3058L164.788 20.3042L164.572 19.328ZM169.852 18.992H170.852V17.992H169.852V18.992ZM169.852 20.864V21.864H170.852V20.864H169.852ZM166.612 21.008L166.771 21.9952L166.783 21.9932L166.796 21.9909L166.612 21.008ZM165.532 21.44L164.851 20.7072L164.838 20.7198L164.824 20.7329L165.532 21.44ZM165.676 23.408L164.988 24.134L164.997 24.1427L165.007 24.1513L165.676 23.408ZM168.268 23.528L168.776 24.389L168.788 24.3822L168.268 23.528ZM169.132 22.64L170.002 23.1321L170.007 23.1242L170.011 23.1163L169.132 22.64ZM168.964 17.096L168.275 17.821L168.285 17.8303L168.295 17.8393L168.964 17.096ZM165.916 16.808L166.106 17.7898L166.117 17.7875L166.129 17.7849L165.916 16.808ZM164.26 17.312L163.892 16.3818L163.869 16.3911L163.846 16.4016L164.26 17.312ZM163.324 17.432L162.991 18.375L163.016 18.3839L163.041 18.3914L163.324 17.432ZM162.7 16.952L161.842 17.4665L161.85 17.4798L161.858 17.4928L162.7 16.952ZM162.724 15.368L163.572 15.898L163.579 15.8866L163.585 15.875L162.724 15.368ZM163.516 14.768L163.844 15.7125L163.867 15.7044L163.89 15.6951L163.516 14.768ZM165.628 14.144L165.463 13.1576L165.459 13.1583L165.628 14.144ZM170.5 14.528L170.075 15.4332L170.086 15.4384L170.097 15.4433L170.5 14.528ZM172.3 16.184L171.417 16.6536L171.421 16.6615L172.3 16.184ZM172.468 25.736L171.724 25.067L172.468 25.736ZM169.948 25.736L169.204 26.405L169.213 26.415L169.223 26.4247L169.948 25.736ZM169.516 23.48L170.166 22.7207L168.516 21.3058V23.48H169.516ZM169.684 23.624L170.668 23.7978L170.767 23.236L170.334 22.8647L169.684 23.624ZM169.06 25.04L168.279 24.4153L168.276 24.4193L169.06 25.04ZM167.884 25.952L168.281 26.8696L168.294 26.864L168.306 26.8582L167.884 25.952ZM166.228 25.264C165.496 25.264 164.873 25.1226 164.338 24.8614L163.461 26.6586C164.302 27.0694 165.231 27.264 166.228 27.264V25.264ZM164.338 24.8614C163.792 24.5947 163.399 24.2506 163.124 23.8373L161.46 24.9467C161.952 25.6854 162.631 26.2533 163.461 26.6586L164.338 24.8614ZM163.124 23.8373C162.854 23.4324 162.716 22.9789 162.716 22.448H160.716C160.716 23.3571 160.961 24.1996 161.46 24.9467L163.124 23.8373ZM162.716 22.448C162.716 21.7571 162.892 21.3418 163.13 21.0783L161.645 19.7377C160.987 20.4662 160.716 21.4109 160.716 22.448H162.716ZM163.14 21.0665C163.388 20.7837 163.875 20.4927 164.774 20.3074L164.369 18.3486C163.252 18.5793 162.284 19.0083 161.635 19.7495L163.14 21.0665ZM164.788 20.3042C165.696 20.1026 166.95 19.992 168.58 19.992V17.992C166.881 17.992 165.464 18.1054 164.355 18.3518L164.788 20.3042ZM168.58 19.992H169.852V17.992H168.58V19.992ZM168.852 18.992V20.864H170.852V18.992H168.852ZM169.852 19.864H168.604V21.864H169.852V19.864ZM168.604 19.864C167.756 19.864 167.024 19.9132 166.427 20.0251L166.796 21.9909C167.223 21.9108 167.819 21.864 168.604 21.864V19.864ZM166.452 20.0208C165.875 20.1139 165.286 20.3035 164.851 20.7072L166.212 22.1728C166.225 22.1605 166.356 22.0621 166.771 21.9952L166.452 20.0208ZM164.824 20.7329C164.384 21.1729 164.22 21.7411 164.22 22.304H166.22C166.22 22.2131 166.232 22.1672 166.238 22.1516C166.242 22.14 166.243 22.143 166.239 22.1471L164.824 20.7329ZM164.22 22.304C164.22 23.0052 164.469 23.6429 164.988 24.134L166.363 22.682C166.274 22.5971 166.22 22.4988 166.22 22.304H164.22ZM165.007 24.1513C165.569 24.6578 166.298 24.84 167.044 24.84V22.84C166.605 22.84 166.422 22.7342 166.345 22.6647L165.007 24.1513ZM167.044 24.84C167.662 24.84 168.25 24.6997 168.776 24.3889L167.759 22.6671C167.581 22.7723 167.353 22.84 167.044 22.84V24.84ZM168.788 24.3822C169.298 24.0712 169.708 23.6517 170.002 23.1321L168.261 22.1479C168.139 22.3643 167.973 22.5368 167.748 22.6738L168.788 24.3822ZM170.011 23.1163C170.306 22.5719 170.444 21.9735 170.444 21.344H168.444C168.444 21.6745 168.373 21.9401 168.252 22.1637L170.011 23.1163ZM170.444 21.344V18.584H168.444V21.344H170.444ZM170.444 18.584C170.444 17.771 170.265 16.922 169.633 16.3527L168.295 17.8393C168.302 17.846 168.444 17.989 168.444 18.584H170.444ZM169.652 16.371C169.05 15.7987 168.181 15.64 167.332 15.64V17.64C168.018 17.64 168.237 17.7853 168.275 17.821L169.652 16.371ZM167.332 15.64C166.814 15.64 166.27 15.7069 165.702 15.8311L166.129 17.7849C166.585 17.6851 166.985 17.64 167.332 17.64V15.64ZM165.726 15.8262C165.154 15.9368 164.542 16.1254 163.892 16.3818L164.627 18.2422C165.193 18.0186 165.685 17.8712 166.106 17.7898L165.726 15.8262ZM163.846 16.4016C163.633 16.4985 163.575 16.4637 163.606 16.4726L163.041 18.3914C163.616 18.5603 164.183 18.4455 164.673 18.2224L163.846 16.4016ZM163.656 16.489C163.575 16.4604 163.554 16.4325 163.541 16.4112L161.858 17.4928C162.133 17.9195 162.528 18.2116 162.991 18.375L163.656 16.489ZM163.557 16.4375C163.503 16.3482 163.484 16.2693 163.484 16.184H161.484C161.484 16.6427 161.608 17.0758 161.842 17.4665L163.557 16.4375ZM163.484 16.184C163.484 16.0927 163.506 16.0031 163.572 15.898L161.876 14.838C161.621 15.2449 161.484 15.6993 161.484 16.184H163.484ZM163.585 15.875C163.599 15.8522 163.646 15.7815 163.844 15.7125L163.187 13.8235C162.649 14.0105 162.168 14.3398 161.862 14.861L163.585 15.875ZM163.89 15.6951C164.59 15.4124 165.224 15.2274 165.796 15.1297L165.459 13.1583C164.719 13.2846 163.945 13.5156 163.141 13.8409L163.89 15.6951ZM165.792 15.1304C166.421 15.0256 166.981 14.976 167.476 14.976V12.976C166.85 12.976 166.178 13.0384 165.463 13.1576L165.792 15.1304ZM167.476 14.976C168.618 14.976 169.467 15.1482 170.075 15.4332L170.924 13.6228C169.964 13.1718 168.797 12.976 167.476 12.976V14.976ZM170.097 15.4433C170.697 15.7074 171.125 16.1054 171.417 16.6536L173.182 15.7144C172.674 14.7586 171.902 14.0526 170.902 13.6127L170.097 15.4433ZM171.421 16.6615C171.716 17.2046 171.9 17.9765 171.9 19.04H173.9C173.9 17.7675 173.683 16.6354 173.178 15.7065L171.421 16.6615ZM171.9 19.04V24.368H173.9V19.04H171.9ZM171.9 24.368C171.9 24.8062 171.794 24.9898 171.724 25.067L173.211 26.405C173.717 25.8422 173.9 25.1138 173.9 24.368H171.9ZM171.724 25.067C171.674 25.1234 171.56 25.216 171.22 25.216V27.216C171.967 27.216 172.686 26.9886 173.211 26.405L171.724 25.067ZM171.22 25.216C170.881 25.216 170.745 25.124 170.673 25.0473L169.223 26.4247C169.758 26.988 170.47 27.216 171.22 27.216V25.216ZM170.691 25.067C170.621 24.9898 170.516 24.8062 170.516 24.368H168.516C168.516 25.1138 168.698 25.8422 169.204 26.405L170.691 25.067ZM170.516 24.368V23.48H168.516V24.368H170.516ZM168.865 24.2393L169.033 24.3833L170.334 22.8647L170.166 22.7207L168.865 24.2393ZM168.699 23.4502C168.63 23.8425 168.486 24.1563 168.279 24.4153L169.84 25.6647C170.273 25.1237 170.546 24.4935 170.668 23.7978L168.699 23.4502ZM168.276 24.4193C168.076 24.6716 167.811 24.8821 167.461 25.0458L168.306 26.8582C168.916 26.5739 169.435 26.1764 169.844 25.6607L168.276 24.4193ZM167.486 25.0344C167.153 25.1786 166.741 25.264 166.228 25.264V27.264C166.962 27.264 167.654 27.1414 168.281 26.8696L167.486 25.0344ZM176.083 25.736L175.376 26.4431L176.083 25.736ZM176.059 14.504L175.352 13.7969V13.7969L176.059 14.504ZM178.699 14.504L177.974 15.1927L177.983 15.202L177.992 15.2111L178.699 14.504ZM179.155 17.096V18.096H180.155V17.096H179.155ZM178.915 17.096L177.934 16.8999L177.695 18.096H178.915V17.096ZM182.731 13.976L182.792 14.9741L182.802 14.9735L182.811 14.9728L182.731 13.976ZM183.643 14.288L182.887 14.9429L182.911 14.9699L182.936 14.9951L183.643 14.288ZM184.003 15.416L183.003 15.4463L183.004 15.4633L183.005 15.4804L184.003 15.416ZM183.691 16.592L182.923 15.9518L182.912 15.9648L182.902 15.9781L183.691 16.592ZM182.539 17.12L182.626 18.1162L182.641 18.1149L182.656 18.1131L182.539 17.12ZM181.987 17.168L181.9 16.1718L181.9 16.1718L181.987 17.168ZM179.947 17.96L179.24 17.2529L179.233 17.2593L179.227 17.2659L179.947 17.96ZM178.819 25.736L178.112 25.0289L178.103 25.038L178.094 25.0473L178.819 25.736ZM177.475 25.216C177.038 25.216 176.865 25.104 176.79 25.0289L175.376 26.4431C175.941 27.008 176.696 27.216 177.475 27.216V25.216ZM176.79 25.0289C176.71 24.949 176.603 24.7798 176.603 24.368H174.603C174.603 25.1402 174.816 25.883 175.376 26.4431L176.79 25.0289ZM176.603 24.368V15.848H174.603V24.368H176.603ZM176.603 15.848C176.603 15.4191 176.711 15.266 176.766 15.2111L175.352 13.7969C174.799 14.35 174.603 15.0929 174.603 15.848H176.603ZM176.766 15.2111C176.856 15.1211 177.017 15.024 177.379 15.024V13.024C176.62 13.024 175.902 13.2469 175.352 13.7969L176.766 15.2111ZM177.379 15.024C177.769 15.024 177.912 15.1272 177.974 15.1927L179.424 13.8152C178.878 13.2408 178.141 13.024 177.379 13.024V15.024ZM177.992 15.2111C178.047 15.266 178.155 15.4191 178.155 15.848H180.155C180.155 15.0929 179.959 14.35 179.406 13.7969L177.992 15.2111ZM178.155 15.848V17.096H180.155V15.848H178.155ZM179.155 16.096H178.915V18.096H179.155V16.096ZM179.896 17.2921C180.049 16.5225 180.369 16.0008 180.814 15.643L179.56 14.085C178.692 14.7832 178.164 15.7495 177.934 16.8999L179.896 17.2921ZM180.814 15.643C181.274 15.2729 181.909 15.0284 182.792 14.9741L182.67 12.9779C181.472 13.0516 180.412 13.3991 179.56 14.085L180.814 15.643ZM182.811 14.9728C182.907 14.9651 182.941 14.9781 182.935 14.9762C182.932 14.975 182.923 14.9713 182.911 14.9635C182.9 14.9557 182.891 14.9478 182.887 14.9429L184.399 13.6331C183.928 13.0902 183.276 12.9292 182.651 12.9792L182.811 14.9728ZM182.936 14.9951C182.911 14.9699 182.925 14.9694 182.948 15.042C182.972 15.1173 182.997 15.246 183.003 15.4463L185.002 15.3857C184.984 14.7623 184.842 14.0727 184.35 13.5809L182.936 14.9951ZM183.005 15.4804C183.026 15.8063 182.951 15.9178 182.923 15.9518L184.459 17.2322C184.911 16.6902 185.044 16.0177 185.001 15.3516L183.005 15.4804ZM182.902 15.9781C182.901 15.9789 182.897 15.9838 182.886 15.992C182.875 16.0007 182.854 16.0146 182.818 16.0309C182.745 16.0647 182.619 16.1036 182.422 16.1268L182.656 18.1131C183.334 18.0334 184.025 17.7911 184.48 17.2059L182.902 15.9781ZM182.452 16.1238L181.9 16.1718L182.074 18.1642L182.626 18.1162L182.452 16.1238ZM181.9 16.1718C180.855 16.2634 179.914 16.5784 179.24 17.2529L180.654 18.6671C180.876 18.4456 181.295 18.2326 182.074 18.1642L181.9 16.1718ZM179.227 17.2659C178.558 17.9593 178.299 18.8928 178.299 19.904H180.299C180.299 19.2192 180.471 18.8567 180.667 18.6541L179.227 17.2659ZM178.299 19.904V24.368H180.299V19.904H178.299ZM178.299 24.368C178.299 24.7798 178.192 24.949 178.112 25.0289L179.526 26.4431C180.086 25.883 180.299 25.1402 180.299 24.368H178.299ZM178.094 25.0473C178.037 25.1076 177.89 25.216 177.475 25.216V27.216C178.244 27.216 178.993 27.0044 179.544 26.4247L178.094 25.0473Z" fill="black" mask="url(#path-1-outside-1_1_180)"/>
<rect x="0.5" y="0.5" width="31" height="31" stroke="black"/>
<path d="M15.8195 31.3599C8.43395 31.3599 2.42499 25.351 2.42499 17.9647C2.42499 13.2377 4.84163 8.95159 8.89027 6.50039C9.09639 6.37554 9.32509 6.29251 9.5633 6.25604C9.80151 6.21958 10.0446 6.23039 10.2786 6.28786C10.5126 6.34532 10.7331 6.44833 10.9273 6.59098C11.1215 6.73363 11.2857 6.91315 11.4106 7.11927C11.5354 7.32539 11.6185 7.55409 11.6549 7.7923C11.6914 8.03051 11.6806 8.27357 11.6231 8.5076C11.5657 8.74164 11.4627 8.96206 11.32 9.15629C11.1773 9.35051 10.9978 9.51474 10.7917 9.63959C7.85091 11.4201 6.09539 14.533 6.09539 17.9647C6.09539 23.3273 10.4576 27.6895 15.8202 27.6895C21.1827 27.6895 25.5443 23.3273 25.5443 17.9647C25.5443 14.4767 23.6602 11.2351 20.6247 9.50711C20.4109 9.39023 20.2225 9.23196 20.0706 9.04151C19.9186 8.85107 19.8061 8.63227 19.7397 8.39788C19.6732 8.1635 19.654 7.91821 19.6833 7.67635C19.7127 7.43449 19.7899 7.20088 19.9104 6.98917C20.031 6.77745 20.1925 6.59187 20.3855 6.44324C20.5786 6.29462 20.7993 6.18592 21.0348 6.1235C21.2703 6.06109 21.5159 6.04619 21.7572 6.07969C21.9985 6.1132 22.2308 6.19442 22.4403 6.31863C24.4953 7.4912 26.2041 9.18583 27.3937 11.231C28.5833 13.2762 29.2115 15.5994 29.2147 17.9653C29.2141 25.3509 23.2064 31.3599 15.8195 31.3599ZM15.68 17.7817C14.6669 17.7817 13.44 16.9599 13.44 15.9468V2.73527C13.44 1.72215 14.6669 0.900391 15.68 0.900391C16.6931 0.900391 17.92 1.72215 17.92 2.73527V15.9468C17.92 16.9599 16.6931 17.7817 15.68 17.7817Z" fill="#3498DB"/>
</svg>
