<svg width="43" height="43" viewBox="0 0 43 43" fill="none" xmlns="http://www.w3.org/2000/svg">
<g filter="url(#filter0_d_1_216)">
<circle cx="21.5" cy="19.5" r="17.5" fill="white"/>
</g>
<path d="M29 12.9123V24.2181C28.9998 25.0603 28.7244 25.8789 28.2165 26.547C27.7085 27.215 26.9965 27.6952 26.1907 27.9131C25.3849 28.1309 24.5304 28.0742 23.7598 27.7518C22.9892 27.4294 22.3455 26.8593 21.9285 26.1299C21.5115 25.4005 21.3445 24.5525 21.4535 23.7175C21.5624 22.8826 21.9412 22.1072 22.5311 21.5117C23.1209 20.9162 23.8889 20.5339 24.716 20.424C25.543 20.3141 26.3828 20.4827 27.1052 20.9038V16.7392L17.6315 18.3328V25.1746C17.6315 25.232 17.6267 25.2865 17.6173 25.341C17.6853 26.0766 17.5104 26.8142 17.12 27.4389C16.7295 28.0636 16.1453 28.5404 15.4584 28.795C14.7716 29.0495 14.0206 29.0676 13.3225 28.8463C12.6244 28.625 12.0185 28.1768 11.599 27.5715C11.1795 26.9662 10.9701 26.2378 11.0034 25.4999C11.0367 24.7619 11.3109 24.0558 11.7831 23.4915C12.2553 22.9273 12.8992 22.5366 13.6143 22.3803C14.3294 22.224 15.0756 22.3109 15.7367 22.6275V14.5068C15.7367 14.0539 15.8957 13.6157 16.1856 13.2702C16.4755 12.9246 16.8774 12.6941 17.3198 12.6196L26.7936 11.0261C27.0649 10.9804 27.3429 10.9949 27.6082 11.0686C27.8735 11.1424 28.1196 11.2735 28.3296 11.453C28.5396 11.6325 28.7083 11.8561 28.8241 12.1081C28.9399 12.3601 28.9999 12.6345 29 12.9123ZM14.3157 24.2181C13.9388 24.2181 13.5773 24.3693 13.3108 24.6383C13.0443 24.9074 12.8946 25.2723 12.8946 25.6529C12.8946 26.0334 13.0443 26.3983 13.3108 26.6674C13.5773 26.9365 13.9388 27.0876 14.3157 27.0876C14.6926 27.0876 15.054 26.9365 15.3205 26.6674C15.587 26.3983 15.7367 26.0334 15.7367 25.6529C15.7367 25.2723 15.587 24.9074 15.3205 24.6383C15.054 24.3693 14.6926 24.2181 14.3157 24.2181ZM25.2105 22.3051C24.708 22.3051 24.226 22.5067 23.8707 22.8654C23.5154 23.2242 23.3157 23.7108 23.3157 24.2181C23.3157 24.7255 23.5154 25.2121 23.8707 25.5708C24.226 25.9296 24.708 26.1311 25.2105 26.1311C25.713 26.1311 26.195 25.9296 26.5503 25.5708C26.9056 25.2121 27.1052 24.7255 27.1052 24.2181C27.1052 23.7108 26.9056 23.2242 26.5503 22.8654C26.195 22.5067 25.713 22.3051 25.2105 22.3051ZM27.1052 12.9123L17.6315 14.5068V16.3939L27.1052 14.7995V12.9123Z" fill="black"/>
<defs>
<filter id="filter0_d_1_216" x="0" y="0" width="43" height="43" filterUnits="userSpaceOnUse" color-interpolation-filters="sRGB">
<feFlood flood-opacity="0" result="BackgroundImageFix"/>
<feColorMatrix in="SourceAlpha" type="matrix" values="0 0 0 0 0 0 0 0 0 0 0 0 0 0 0 0 0 0 127 0" result="hardAlpha"/>
<feOffset dy="2"/>
<feGaussianBlur stdDeviation="2"/>
<feComposite in2="hardAlpha" operator="out"/>
<feColorMatrix type="matrix" values="0 0 0 0 0 0 0 0 0 0 0 0 0 0 0 0 0 0 0.25 0"/>
<feBlend mode="normal" in2="BackgroundImageFix" result="effect1_dropShadow_1_216"/>
<feBlend mode="normal" in="SourceGraphic" in2="effect1_dropShadow_1_216" result="shape"/>
</filter>
</defs>
</svg>
