<svg width="13" height="19" viewBox="0 0 13 19" fill="none" xmlns="http://www.w3.org/2000/svg">
<path d="M6.5 9.256C5.88432 9.256 5.29385 9.02104 4.8585 8.60281C4.42315 8.18458 4.17857 7.61733 4.17857 7.02587C4.17857 6.4344 4.42315 5.86715 4.8585 5.44892C5.29385 5.03069 5.88432 4.79573 6.5 4.79573C7.11568 4.79573 7.70615 5.03069 8.1415 5.44892C8.57685 5.86715 8.82143 6.4344 8.82143 7.02587C8.82143 7.31873 8.76138 7.60873 8.64472 7.8793C8.52806 8.14987 8.35706 8.39572 8.1415 8.60281C7.92593 8.80989 7.67002 8.97416 7.38837 9.08624C7.10672 9.19831 6.80485 9.256 6.5 9.256ZM6.5 0.781494C4.77609 0.781494 3.12279 1.43938 1.90381 2.61043C0.684819 3.78147 0 5.36976 0 7.02587C0 11.7091 6.5 18.6226 6.5 18.6226C6.5 18.6226 13 11.7091 13 7.02587C13 5.36976 12.3152 3.78147 11.0962 2.61043C9.87721 1.43938 8.22391 0.781494 6.5 0.781494Z" fill="black"/>
</svg>
