<svg width="62" height="59" viewBox="0 0 62 59" fill="none" xmlns="http://www.w3.org/2000/svg">
<rect width="61.2433" height="59" rx="9" fill="#3498DB"/>
<path d="M20.6925 17.4986C26.7804 12.5092 35.7774 12.8564 41.4608 18.5402C47.5131 24.593 47.5131 34.4076 41.4608 40.4604C35.4086 46.5132 25.5948 46.5132 19.5425 40.4604C17.6855 38.6053 16.3303 36.3086 15.6043 33.7861C14.8783 31.2635 14.8052 28.5977 15.3919 26.0392L15.5113 25.554L18.5087 26.3445C17.7656 29.169 18.0433 32.1652 19.2928 34.805C20.5423 37.4449 22.6834 39.5589 25.3388 40.7746C27.9942 41.9902 30.9934 42.2295 33.8079 41.4502C36.6224 40.6709 39.0716 38.9231 40.7237 36.5148C42.3759 34.1064 43.125 31.1921 42.839 28.2855C42.5531 25.3789 41.2504 22.6665 39.1606 20.6264C37.0708 18.5863 34.328 17.3493 31.4156 17.1336C28.5032 16.9178 25.6081 17.7371 23.2405 19.447L22.8995 19.7043L24.4757 21.2807L17.3525 22.9237L18.9954 15.7998L20.6925 17.4986ZM32.0515 20.2003V23.3003H35.9262V26.4003H27.4019C27.2083 26.4 27.0215 26.4721 26.8784 26.6026C26.7353 26.7331 26.6462 26.9124 26.6287 27.1053C26.6112 27.2982 26.6666 27.4906 26.7838 27.6447C26.9011 27.7988 27.0719 27.9034 27.2624 27.9379L27.4019 27.9503H33.6014C34.629 27.9503 35.6146 28.3586 36.3412 29.0853C37.0679 29.812 37.4761 30.7976 37.4761 31.8253C37.4761 32.8531 37.0679 33.8387 36.3412 34.5654C35.6146 35.2921 34.629 35.7004 33.6014 35.7004H32.0515V38.8004H28.9518V35.7004H25.0771V32.6003H33.6014C33.7951 32.6007 33.9818 32.5285 34.1249 32.3981C34.268 32.2676 34.3571 32.0882 34.3746 31.8954C34.3921 31.7025 34.3367 31.5101 34.2195 31.356C34.1022 31.2018 33.9314 31.0972 33.7409 31.0627L33.6014 31.0503H27.4019C26.3743 31.0503 25.3887 30.6421 24.6621 29.9154C23.9354 29.1887 23.5272 28.203 23.5272 27.1753C23.5272 26.1476 23.9354 25.162 24.6621 24.4353C25.3887 23.7086 26.3743 23.3003 27.4019 23.3003H28.9518V20.2003H32.0515Z" fill="white"/>
</svg>
