<svg width="62" height="59" viewBox="0 0 62 59" fill="none" xmlns="http://www.w3.org/2000/svg">
<rect width="61.2433" height="59" rx="9" fill="#3498DB"/>
<path d="M15 19V21H34V36H27.844C27.398 34.281 25.852 33 24 33C22.148 33 20.602 34.281 20.156 36H19V31H17V38H20.156C20.602 39.719 22.148 41 24 41C25.852 41 27.398 39.719 27.844 38H36.156C36.602 39.719 38.148 41 40 41C41.852 41 43.398 39.719 43.844 38H47V29.844L46.937 29.687L44.937 23.687L44.72 23H36V19H15ZM16 23V25H25V23H16ZM36 25H43.281L45 30.125V36H43.844C43.398 34.281 41.852 33 40 33C38.148 33 36.602 34.281 36.156 36H36V25ZM17 27V29H23V27H17ZM24 35C25.117 35 26 35.883 26 37C26 38.117 25.117 39 24 39C22.883 39 22 38.117 22 37C22 35.883 22.883 35 24 35ZM40 35C41.117 35 42 35.883 42 37C42 38.117 41.117 39 40 39C38.883 39 38 38.117 38 37C38 35.883 38.883 35 40 35Z" fill="white"/>
</svg>
