<svg width="24" height="24" viewBox="0 0 24 24" fill="none" xmlns="http://www.w3.org/2000/svg">
<path d="M22.3373 2.2119C22.4526 2.08006 22.5408 1.9268 22.5969 1.76087C22.653 1.59495 22.6758 1.4196 22.6641 1.24485C22.6524 1.0701 22.6064 0.89936 22.5287 0.742387C22.451 0.585415 22.3432 0.44528 22.2113 0.329985C22.0795 0.21469 21.9262 0.126491 21.7603 0.0704257C21.5943 0.0143601 21.419 -0.00847479 21.2442 0.00322486C21.0695 0.0149245 20.8987 0.0609297 20.7418 0.138613C20.5848 0.216297 20.4446 0.324138 20.3293 0.455979L13.516 8.24229L7.73333 0.533309C7.60914 0.367722 7.44809 0.233323 7.26295 0.140757C7.07781 0.0481911 6.87366 0 6.66667 0H1.33333C1.08572 0 0.842994 0.0689498 0.632359 0.199123C0.421724 0.329297 0.251501 0.515551 0.140764 0.737015C0.030027 0.958479 -0.0168491 1.2064 0.00538822 1.45301C0.0276255 1.69961 0.118098 1.93515 0.266667 2.13324L8.84933 13.5754L1.66267 21.7883C1.54737 21.9202 1.45916 22.0734 1.4031 22.2394C1.34703 22.4053 1.32419 22.5806 1.33589 22.7554C1.34759 22.9301 1.3936 23.1009 1.47129 23.2579C1.54897 23.4148 1.65682 23.555 1.78867 23.6703C1.92051 23.7856 2.07378 23.8738 2.23971 23.9298C2.40565 23.9859 2.581 24.0087 2.75576 23.997C2.93052 23.9853 3.10127 23.9393 3.25825 23.8616C3.41523 23.7839 3.55537 23.6761 3.67067 23.5443L10.484 15.7566L16.2667 23.4656C16.3909 23.6312 16.5519 23.7656 16.737 23.8582C16.9222 23.9507 17.1263 23.9989 17.3333 23.9989H22.6667C22.9143 23.9989 23.157 23.93 23.3676 23.7998C23.5783 23.6696 23.7485 23.4834 23.8592 23.2619C23.97 23.0404 24.0168 22.7925 23.9946 22.5459C23.9724 22.2993 23.8819 22.0638 23.7333 21.8657L15.1507 10.4235L22.3373 2.2119Z" fill="black"/>
</svg>
